<?xml version="1.0" encoding="utf-8"?>
<!-- Generator: Adobe Illustrator 23.0.6, SVG Export Plug-In . SVG Version: 6.00 Build 0)  -->
<svg version="1.1" id="Map" xmlns="http://www.w3.org/2000/svg" xmlns:xlink="http://www.w3.org/1999/xlink" x="0px" y="0px"
	 viewBox="0 0 1413 911" style="enable-background:new 0 0 1413 911;" xml:space="preserve">
  <style type="text/css">
    .white{fill:#F7F7F7;}
    .stair-dark{fill:#9FA3A3;}
    .stair-light, .desk{fill:#D9D9D9;}
    .light-step{fill:none;stroke:#9FA3A3;stroke-width:0.75;stroke-miterlimit:10;}
    .dark-step{fill:none;stroke:#D9D9D9;stroke-width:0.75;stroke-miterlimit:10;}
    .stair-landing{fill:#B6B7B7;}
    .dark-green{fill:#004347;}
    .rec-area-outline{fill:#00A9B2;stroke:#00A9B2;stroke-miterlimit:10;}
    .rec-area{fill:#00A9B2;}
    .meeting-room{fill:#6FBB84;}
    .meeting-room-two{fill:#6FBB84;stroke:#004347;stroke-miterlimit:10;}
    .outline{fill:none;stroke:#004347;stroke-width:3;stroke-miterlimit:10;}
  </style>
  <polygon class="white" points="1273.5,395.4 1081.8,202.5 1047,235.7 635,233.8 635,287.2 490.8,309 485.1,269.4 162.6,314.6 167.3,347 85,358.9 120.7,612.1 204.3,600.2 208.8,628.6 530.7,580.9 525,542 636.6,525.4 637.2,576.1 1121.5,574.3 1121.5,543.5 "/>
  <rect class="stair-dark" x="582.2" y="348.6" transform="matrix(5.106434e-07 -1 1 5.106434e-07 261.6795 985.5671)" width="82.9" height="26.8"/>
  <line class="dark-step" x1="610.2" y1="323.9" x2="637" y2="323.9"/>
  <line class="dark-step" x1="610.2" y1="327.5" x2="637" y2="327.5"/>
  <line class="dark-step" x1="610.2" y1="331" x2="637" y2="331"/>
  <line class="dark-step" x1="610.2" y1="334.6" x2="637" y2="334.6"/>
  <line class="dark-step" x1="610.2" y1="338" x2="637" y2="338"/>
  <line class="dark-step" x1="610.2" y1="341.6" x2="637" y2="341.6"/>
  <line class="dark-step" x1="610.2" y1="345" x2="637" y2="345"/>
  <line class="dark-step" x1="610.2" y1="348.6" x2="637" y2="348.6"/>
  <line class="dark-step" x1="610.2" y1="352" x2="637" y2="352"/>
  <line class="dark-step" x1="610.2" y1="369.7" x2="637" y2="369.7"/>
  <line class="dark-step" x1="610.2" y1="373.1" x2="637" y2="373.1"/>
  <line class="dark-step" x1="610.2" y1="376.7" x2="637" y2="376.7"/>
  <line class="dark-step" x1="610.2" y1="380.1" x2="637" y2="380.1"/>
  <line class="dark-step" x1="610.2" y1="383.7" x2="637" y2="383.7"/>
  <line class="dark-step" x1="610.2" y1="387.1" x2="637" y2="387.1"/>
  <line class="dark-step" x1="610.2" y1="390.7" x2="637" y2="390.7"/>
  <line class="dark-step" x1="610.2" y1="394.1" x2="637" y2="394.1"/>
  <line class="dark-step" x1="610.2" y1="397.7" x2="637" y2="397.7"/>
  <line class="dark-step" x1="610.2" y1="401.2" x2="637" y2="401.2"/>
  <rect class="stair-light" x="610.2" y="352" width="26.8" height="17.6"/>
  <rect class="stair-dark" x="194" y="477.5" transform="matrix(-0.9903 0.1392 -0.1392 -0.9903 484.8451 934.445)" width="31.5" height="13.4"/>
  <line class="dark-step" x1="198.5" y1="492.5" x2="196.6" y2="479.3"/>
  <line class="dark-step" x1="202" y1="492" x2="200.2" y2="478.8"/>
  <line class="dark-step" x1="205.4" y1="491.5" x2="203.6" y2="478.3"/>
  <line class="dark-step" x1="209" y1="491" x2="207.1" y2="477.8"/>
  <line class="dark-step" x1="212.4" y1="490.6" x2="210.5" y2="477.3"/>
  <line class="dark-step" x1="215.9" y1="490.1" x2="214.1" y2="476.8"/>
  <line class="dark-step" x1="219.3" y1="489.6" x2="217.5" y2="476.3"/>
  <line class="dark-step" x1="222.9" y1="489.1" x2="221" y2="475.8"/>
  <rect class="stair-light" x="191.9" y="462.3" transform="matrix(-0.9903 0.1392 -0.1392 -0.9903 478.4934 904.5629)" width="31.5" height="13.4"/>
  <line class="light-step" x1="196.3" y1="477.4" x2="194.5" y2="464.1"/>
  <line class="light-step" x1="199.9" y1="476.9" x2="198" y2="463.6"/>
  <line class="light-step" x1="203.3" y1="476.4" x2="201.4" y2="463.1"/>
  <line class="light-step" x1="206.9" y1="475.9" x2="205" y2="462.6"/>
  <line class="light-step" x1="210.2" y1="475.4" x2="208.4" y2="462.1"/>
  <line class="light-step" x1="213.8" y1="474.9" x2="211.9" y2="461.6"/>
  <line class="light-step" x1="217.2" y1="474.4" x2="215.3" y2="461.2"/>
  <line class="light-step" x1="220.8" y1="473.9" x2="218.9" y2="460.7"/>
  <rect class="stair-landing" x="218.7" y="464.4" transform="matrix(-0.1392 -0.9903 0.9903 -0.1392 -203.1212 769.7758)" width="28.7" height="17.6"/>
  <rect class="stair-dark" x="1082.7" y="399" transform="matrix(-1 -2.425573e-08 2.425573e-08 -1 2196.8086 811.3698)"  width="31.5" height="13.4"/>
  <line class="dark-step" x1="1110.7" y1="399" x2="1110.7" y2="412.4"/>
  <line class="dark-step" x1="1107.1" y1="399" x2="1107.1" y2="412.4"/>
  <line class="dark-step" x1="1103.7" y1="399" x2="1103.7" y2="412.4"/>
  <line class="dark-step" x1="1100.1" y1="399" x2="1100.1" y2="412.4"/>
  <line class="dark-step" x1="1096.7" y1="399" x2="1096.7" y2="412.4"/>
  <line class="dark-step" x1="1093.1" y1="399" x2="1093.1" y2="412.4"/>
  <line class="dark-step" x1="1089.7" y1="399" x2="1089.7" y2="412.4"/>
  <line class="dark-step" x1="1086.1" y1="399" x2="1086.1" y2="412.4"/>
  <rect class="desk" x="1082.7" y="414.5" transform="matrix(-1 -3.510506e-07 3.510506e-07 -1 2196.8083 842.3659)"  width="31.5" height="13.4"/>
  <line class="light-step" x1="1111.6" y1="414.5" x2="1111.6" y2="427.9"/>
  <line class="light-step" x1="1108" y1="414.5" x2="1108" y2="427.9"/>
  <line class="light-step" x1="1104.6" y1="414.5" x2="1104.6" y2="427.9"/>
  <line class="light-step" x1="1101" y1="414.5" x2="1101" y2="427.9"/>
  <line class="light-step" x1="1097.6" y1="414.5" x2="1097.6" y2="427.9"/>
  <line class="light-step" x1="1094" y1="414.5" x2="1094" y2="427.9"/>
  <line class="light-step" x1="1090.5" y1="414.5" x2="1090.5" y2="427.9"/>
  <line class="light-step" x1="1086.9" y1="414.5" x2="1086.9" y2="427.9"/>
  <rect class="stair-landing" x="1059.5" y="404.7" transform="matrix(-6.250620e-09 1 -1 -6.250620e-09 1487.3933 -660.34)" width="28.7" height="17.6"/>
  <path class="desk" d="M1037,452.6c0-1.6-1.3-2.9-2.9-2.9v-5.2H1020v5.2c-1.6,0-2.9,1.3-2.9,2.9c0,1.6,1.3,2.9,2.9,2.9V466 c-1.6,0-2.9,1.3-2.9,2.9c0,1.6,1.3,2.9,2.9,2.9v10.4c-1.6,0-2.9,1.3-2.9,2.9c0,1.6,1.3,2.9,2.9,2.9v10.4c-1.6,0-2.9,1.3-2.9,2.9 c0,1.6,1.3,2.9,2.9,2.9v5.2h14.1v-5.2c1.6,0,2.9-1.3,2.9-2.9c0-1.6-1.3-2.9-2.9-2.9v-10.4c1.6,0,2.9-1.3,2.9-2.9 c0-1.6-1.3-2.9-2.9-2.9v-10.4c1.6,0,2.9-1.3,2.9-2.9c0-1.6-1.3-2.9-2.9-2.9v-10.4C1035.7,455.5,1037,454.2,1037,452.6z"/>
  <path class="desk" d="M900.2,499.7c0-1.6-1.3-2.9-2.9-2.9v-5.2h-14.1v5.2c-1.6,0-2.9,1.3-2.9,2.9c0,1.6,1.3,2.9,2.9,2.9v10.4 c-1.6,0-2.9,1.3-2.9,2.9c0,1.6,1.3,2.9,2.9,2.9v10.4c-1.6,0-2.9,1.3-2.9,2.9c0,1.6,1.3,2.9,2.9,2.9v10.4c-1.6,0-2.9,1.3-2.9,2.9 c0,1.6,1.3,2.9,2.9,2.9v5.2h14.1v-5.2c1.6,0,2.9-1.3,2.9-2.9c0-1.6-1.3-2.9-2.9-2.9v-10.4c1.6,0,2.9-1.3,2.9-2.9 c0-1.6-1.3-2.9-2.9-2.9V519c1.6,0,2.9-1.3,2.9-2.9c0-1.6-1.3-2.9-2.9-2.9v-10.4C898.9,502.7,900.2,501.4,900.2,499.7z"/>
  <path class="desk" d="M854.8,499.7c0-1.6-1.3-2.9-2.9-2.9v-5.2h-14.1v5.2c-1.6,0-2.9,1.3-2.9,2.9c0,1.6,1.3,2.9,2.9,2.9v10.4 c-1.6,0-2.9,1.3-2.9,2.9c0,1.6,1.3,2.9,2.9,2.9v10.4c-1.6,0-2.9,1.3-2.9,2.9c0,1.6,1.3,2.9,2.9,2.9v10.4c-1.6,0-2.9,1.3-2.9,2.9 c0,1.6,1.3,2.9,2.9,2.9v5.2h14.1v-5.2c1.6,0,2.9-1.3,2.9-2.9c0-1.6-1.3-2.9-2.9-2.9v-10.4c1.6,0,2.9-1.3,2.9-2.9 c0-1.6-1.3-2.9-2.9-2.9V519c1.6,0,2.9-1.3,2.9-2.9c0-1.6-1.3-2.9-2.9-2.9v-10.4C853.5,502.7,854.8,501.4,854.8,499.7z"/>
  <path class="desk" d="M761.6,452.9c0-1.6-1.3-2.9-2.9-2.9v-5.2h-14.1v5.2c-1.6,0-2.9,1.3-2.9,2.9c0,1.6,1.3,2.9,2.9,2.9v10.4 c-1.6,0-2.9,1.3-2.9,2.9c0,1.6,1.3,2.9,2.9,2.9v10.4c-1.6,0-2.9,1.3-2.9,2.9c0,1.6,1.3,2.9,2.9,2.9v5.2h14.1v-5.2 c1.6,0,2.9-1.3,2.9-2.9c0-1.6-1.3-2.9-2.9-2.9v-10.4c1.6,0,2.9-1.3,2.9-2.9c0-1.6-1.3-2.9-2.9-2.9v-10.4 C760.3,455.8,761.6,454.5,761.6,452.9z"/>
  <path class="desk" d="M670.6,452.9c0-1.6-1.3-2.9-2.9-2.9v-5.2h-14.1v5.2c-1.6,0-2.9,1.3-2.9,2.9c0,1.6,1.3,2.9,2.9,2.9v10.4 c-1.6,0-2.9,1.3-2.9,2.9c0,1.6,1.3,2.9,2.9,2.9v10.4c-1.6,0-2.9,1.3-2.9,2.9c0,1.6,1.3,2.9,2.9,2.9v5.2h14.1v-5.2 c1.6,0,2.9-1.3,2.9-2.9c0-1.6-1.3-2.9-2.9-2.9v-10.4c1.6,0,2.9-1.3,2.9-2.9c0-1.6-1.3-2.9-2.9-2.9v-10.4 C669.3,455.8,670.6,454.5,670.6,452.9z"/>
  <path class="desk" d="M720.8,452.6c0-1.6-1.3-2.9-2.9-2.9v-5.2h-7.1v48.9h7.1v-5.2c1.6,0,2.9-1.3,2.9-2.9c0-1.6-1.3-2.9-2.9-2.9 v-10.4c1.6,0,2.9-1.3,2.9-2.9c0-1.6-1.3-2.9-2.9-2.9v-10.4C719.5,455.5,720.8,454.2,720.8,452.6z"/>
  <path class="desk" d="M808.7,452.6c0-1.6-1.3-2.9-2.9-2.9v-5.2h-14.1v5.2c-1.6,0-2.9,1.3-2.9,2.9c0,1.6,1.3,2.9,2.9,2.9V466 c-1.6,0-2.9,1.3-2.9,2.9c0,1.6,1.3,2.9,2.9,2.9v10.4c-1.6,0-2.9,1.3-2.9,2.9c0,1.6,1.3,2.9,2.9,2.9v10.4c-1.6,0-2.9,1.3-2.9,2.9 c0,1.6,1.3,2.9,2.9,2.9v10.4c-1.6,0-2.9,1.3-2.9,2.9c0,1.6,1.3,2.9,2.9,2.9v5.2h14.1v-5.2c1.6,0,2.9-1.3,2.9-2.9 c0-1.6-1.3-2.9-2.9-2.9v-10.4c1.6,0,2.9-1.3,2.9-2.9c0-1.6-1.3-2.9-2.9-2.9v-10.4c1.6,0,2.9-1.3,2.9-2.9c0-1.6-1.3-2.9-2.9-2.9 v-10.4c1.6,0,2.9-1.3,2.9-2.9c0-1.6-1.3-2.9-2.9-2.9v-10.4C807.4,455.5,808.7,454.2,808.7,452.6z"/>
  <path class="desk" d="M1065.6,449.7c-1.6,0-2.9,1.3-2.9,2.9c0,1.6,1.3,2.9,2.9,2.9V466c-1.6,0-2.9,1.3-2.9,2.9c0,1.6,1.3,2.9,2.9,2.9v10.4c-1.6,0-2.9,1.3-2.9,2.9c0,1.6,1.3,2.9,2.9,2.9v10.4c-1.6,0-2.9,1.3-2.9,2.9c0,1.6,1.3,2.9,2.9,2.9v10.4c-1.6,0-2.9,1.3-2.9,2.9c0,1.6,1.3,2.9,2.9,2.9v10.4c-1.6,0-2.9,1.3-2.9,2.9c0,1.6,1.3,2.9,2.9,2.9v5.2h7.1v-97.7h-7.1V449.7z"/>
  <path class="desk" d="M991.4,452.6c0-1.6-1.3-2.9-2.9-2.9v-5.2h-14.1v5.2c-1.6,0-2.9,1.3-2.9,2.9c0,1.6,1.3,2.9,2.9,2.9V466 c-1.6,0-2.9,1.3-2.9,2.9c0,1.6,1.3,2.9,2.9,2.9v10.4c-1.6,0-2.9,1.3-2.9,2.9c0,1.6,1.3,2.9,2.9,2.9v10.4c-1.6,0-2.9,1.3-2.9,2.9 c0,1.6,1.3,2.9,2.9,2.9v10.4c-1.6,0-2.9,1.3-2.9,2.9c0,1.6,1.3,2.9,2.9,2.9v10.4c-1.6,0-2.9,1.3-2.9,2.9c0,1.6,1.3,2.9,2.9,2.9 v10.4c-1.6,0-2.9,1.3-2.9,2.9c0,1.6,1.3,2.9,2.9,2.9v5.2h14.1v-5.2c1.6,0,2.9-1.3,2.9-2.9c0-1.6-1.3-2.9-2.9-2.9V537 c1.6,0,2.9-1.3,2.9-2.9c0-1.6-1.3-2.9-2.9-2.9v-10.4c1.6,0,2.9-1.3,2.9-2.9c0-1.6-1.3-2.9-2.9-2.9v-10.4c1.6,0,2.9-1.3,2.9-2.9 c0-1.6-1.3-2.9-2.9-2.9v-10.4c1.6,0,2.9-1.3,2.9-2.9c0-1.6-1.3-2.9-2.9-2.9v-10.4c1.6,0,2.9-1.3,2.9-2.9c0-1.6-1.3-2.9-2.9-2.9 v-10.4C990,455.5,991.4,454.2,991.4,452.6z"/>
  <path class="desk" d="M947,452.6c0-1.6-1.3-2.9-2.9-2.9v-5.2H930v5.2c-1.6,0-2.9,1.3-2.9,2.9c0,1.6,1.3,2.9,2.9,2.9V466 c-1.6,0-2.9,1.3-2.9,2.9c0,1.6,1.3,2.9,2.9,2.9v10.4c-1.6,0-2.9,1.3-2.9,2.9c0,1.6,1.3,2.9,2.9,2.9v10.4c-1.6,0-2.9,1.3-2.9,2.9 c0,1.6,1.3,2.9,2.9,2.9v10.4c-1.6,0-2.9,1.3-2.9,2.9c0,1.6,1.3,2.9,2.9,2.9v10.4c-1.6,0-2.9,1.3-2.9,2.9c0,1.6,1.3,2.9,2.9,2.9 v10.4c-1.6,0-2.9,1.3-2.9,2.9c0,1.6,1.3,2.9,2.9,2.9v5.2h14.1v-5.2c1.6,0,2.9-1.3,2.9-2.9c0-1.6-1.3-2.9-2.9-2.9V537 c1.6,0,2.9-1.3,2.9-2.9c0-1.6-1.3-2.9-2.9-2.9v-10.4c1.6,0,2.9-1.3,2.9-2.9c0-1.6-1.3-2.9-2.9-2.9v-10.4c1.6,0,2.9-1.3,2.9-2.9 c0-1.6-1.3-2.9-2.9-2.9v-10.4c1.6,0,2.9-1.3,2.9-2.9c0-1.6-1.3-2.9-2.9-2.9v-10.4c1.6,0,2.9-1.3,2.9-2.9c0-1.6-1.3-2.9-2.9-2.9 v-10.4C945.7,455.5,947,454.2,947,452.6z"/>
  <path class="desk" d="M1150,387.1l7.4-7.4c1.1,1.1,3,1.1,4.1,0c1.1-1.1,1.1-3,0-4.1l7.4-7.4c1.1,1.1,3,1.1,4.1,0 c1.1-1.1,1.1-3,0-4.1l7.4-7.4c1.1,1.1,3,1.1,4.1,0c1.1-1.1,1.1-3,0-4.1l7.4-7.4c1.1,1.1,3,1.1,4.1,0c1.1-1.1,1.1-3,0-4.1l3.7-3.7 l-10-10l-3.7,3.7c-1.1-1.1-3-1.1-4.1,0c-1.1,1.1-1.1,3,0,4.1l-7.4,7.4c-1.1-1.1-3-1.1-4.1,0c-1.1,1.1-1.1,3,0,4.1l-7.4,7.4 c-1.1-1.1-3-1.1-4.1,0c-1.1,1.1-1.1,3,0,4.1l-3.7,3.7l-3.7,3.7c-1.1-1.1-3-1.1-4.1,0c-1.1,1.1-1.1,3,0,4.1l-7.4,7.4 c-1.1-1.1-3-1.1-4.1,0s-1.1,3,0,4.1l-3.7,3.7l10,10l3.7-3.7c1.1,1.1,3,1.1,4.1,0C1151.1,390.1,1151.1,388.3,1150,387.1z"/>
  <path class="desk" d="M1134.2,352.5c1.1-1.1,1.1-3,0-4.1l7.4-7.4c1.1,1.1,3,1.1,4.1,0c1.1-1.1,1.1-3,0-4.1l7.4-7.4 c1.1,1.1,3,1.1,4.1,0c1.1-1.1,1.1-3,0-4.1l7.4-7.4c1.1,1.1,3,1.1,4.1,0c1.1-1.1,1.1-3,0-4.1l3.7-3.7l-5-5l-46.1,46.1l5,5l3.7-3.7 C1131.2,353.6,1133.1,353.6,1134.2,352.5z"/>
  <path class="desk" d="M1178.8,415.9l7.4-7.4c1.1,1.1,3,1.1,4.1,0c1.1-1.1,1.1-3,0-4.1l7.4-7.4c1.1,1.1,3,1.1,4.1,0 c1.1-1.1,1.1-3,0-4.1l7.4-7.4c1.1,1.1,3,1.1,4.1,0c1.1-1.1,1.1-3,0-4.1l7.4-7.4c1.1,1.1,3,1.1,4.1,0c1.1-1.1,1.1-3,0-4.1l3.7-3.7 l-10-10l-3.7,3.7c-1.1-1.1-3-1.1-4.1,0c-1.1,1.1-1.1,3,0,4.1l-7.4,7.4c-1.1-1.1-3-1.1-4.1,0c-1.1,1.1-1.1,3,0,4.1l-3.7,3.7 l-3.7,3.7c-1.1-1.1-3-1.1-4.1,0s-1.1,3,0,4.1l-7.4,7.4c-1.1-1.1-3-1.1-4.1,0c-1.1,1.1-1.1,3,0,4.1l-7.4,7.4c-1.1-1.1-3-1.1-4.1,0 c-1.1,1.1-1.1,3,0,4.1l-7.4,7.4c-1.1-1.1-3-1.1-4.1,0s-1.1,3,0,4.1l-3.7,3.7l10,10l3.7-3.7c1.1,1.1,3,1.1,4.1,0 c1.1-1.1,1.1-3,0-4.1l7.4-7.4c1.1,1.1,3,1.1,4.1,0C1179.9,418.9,1179.9,417.1,1178.8,415.9z"/>
  <path class="desk" d="M1247.3,385l-3.7,3.7c-1.1-1.1-3-1.1-4.1,0c-1.1,1.1-1.1,3,0,4.1l-7.4,7.4c-1.1-1.1-3-1.1-4.1,0 c-1.1,1.1-1.1,3,0,4.1l-7.4,7.4c-1.1-1.1-3-1.1-4.1,0c-1.1,1.1-1.1,3,0,4.1l-7.4,7.4c-1.1-1.1-3-1.1-4.1,0c-1.1,1.1-1.1,3,0,4.1 l-7.4,7.4c-1.1-1.1-3-1.1-4.1,0c-1.1,1.1-1.1,3,0,4.1l-7.4,7.4c-1.1-1.1-3-1.1-4.1,0c-1.1,1.1-1.1,3,0,4.1l-3.7,3.7l5,5l69.1-69.1 L1247.3,385z"/>
  <path class="desk" d="M295.6,393.5l0.7,5.2l14-2l-0.7-5.2c1.6-0.2,2.7-1.7,2.5-3.3s-1.7-2.7-3.3-2.5l-1.5-10.3 c1.6-0.2,2.7-1.7,2.5-3.3c-0.2-1.6-1.7-2.7-3.3-2.5l-1.5-10.3c1.6-0.2,2.7-1.7,2.5-3.3c-0.2-1.6-1.7-2.7-3.3-2.5l-1.5-10.3 c1.6-0.2,2.7-1.7,2.5-3.3c-0.2-1.6-1.7-2.7-3.3-2.5l-1.5-10.3c1.6-0.2,2.7-1.7,2.5-3.3c-0.2-1.6-1.7-2.7-3.3-2.5l-0.7-5.2l-14,2 l0.7,5.2c-1.6,0.2-2.7,1.7-2.5,3.3c0.2,1.6,1.7,2.7,3.3,2.5l1.5,10.3c-1.6,0.2-2.7,1.7-2.5,3.3c0.2,1.6,1.7,2.7,3.3,2.5l1.5,10.3 c-1.6,0.2-2.7,1.7-2.5,3.3c0.2,1.6,1.7,2.7,3.3,2.5l1.5,10.3c-1.6,0.2-2.7,1.7-2.5,3.3c0.2,1.6,1.7,2.7,3.3,2.5l1.5,10.3 c-1.6,0.2-2.7,1.7-2.5,3.3C292.5,392.7,294,393.8,295.6,393.5z"/>
  <path class="desk" d="M250.8,405.8l14-2l-0.7-5.2c1.6-0.2,2.7-1.7,2.5-3.3c-0.2-1.6-1.7-2.7-3.3-2.5l-1.5-10.3 c1.6-0.2,2.7-1.7,2.5-3.3c-0.2-1.6-1.7-2.7-3.3-2.5l-1.5-10.3c1.6-0.2,2.7-1.7,2.5-3.3c-0.2-1.6-1.7-2.7-3.3-2.5l-1.5-10.3 c1.6-0.2,2.7-1.7,2.5-3.3c-0.2-1.6-1.7-2.7-3.3-2.5l-1.5-10.3c1.6-0.2,2.7-1.7,2.5-3.3c-0.2-1.6-1.7-2.7-3.3-2.5l-0.7-5.2l-14,2 l0.7,5.2c-1.6,0.2-2.7,1.7-2.5,3.3c0.2,1.6,1.7,2.7,3.3,2.5l1.5,10.3c-1.6,0.2-2.7,1.7-2.5,3.3c0.2,1.6,1.7,2.7,3.3,2.5l1.5,10.3 c-1.6,0.2-2.7,1.7-2.5,3.3c0.2,1.6,1.7,2.7,3.3,2.5l1.5,10.3c-1.6,0.2-2.7,1.7-2.5,3.3c0.2,1.6,1.7,2.7,3.3,2.5l1.5,10.3 c-1.6,0.2-2.7,1.7-2.5,3.3c0.2,1.6,1.7,2.7,3.3,2.5L250.8,405.8z"/>
  <path class="desk" d="M219.2,409.7l-0.7-5.2c1.6-0.2,2.7-1.7,2.5-3.3c-0.2-1.6-1.7-2.7-3.3-2.5l-1.5-10.3c1.6-0.2,2.7-1.7,2.5-3.3 c-0.2-1.6-1.7-2.7-3.3-2.5l-1.5-10.3c1.6-0.2,2.7-1.7,2.5-3.3c-0.2-1.6-1.7-2.7-3.3-2.5l-1.5-10.3c1.6-0.2,2.7-1.7,2.5-3.3 c-0.2-1.6-1.7-2.7-3.3-2.5l-1.5-10.3c1.6-0.2,2.7-1.7,2.5-3.3c-0.2-1.6-1.7-2.7-3.3-2.5l-0.7-5.2l-7,1l11.3,80.7L219.2,409.7z"/>
  <path class="desk" d="M430.6,372.3l0.7,5.2l14-2l-0.7-5.2c1.6-0.2,2.7-1.7,2.5-3.3c-0.2-1.6-1.7-2.7-3.3-2.5l-1.5-10.3 c1.6-0.2,2.7-1.7,2.5-3.3c-0.2-1.6-1.7-2.7-3.3-2.5l-1.5-10.3c1.6-0.2,2.7-1.7,2.5-3.3c-0.2-1.6-1.7-2.7-3.3-2.5l-0.7-5.2l-14,2 l0.7,5.2c-1.6,0.2-2.7,1.7-2.5,3.3c0.2,1.6,1.7,2.7,3.3,2.5l1.5,10.3c-1.6,0.2-2.7,1.7-2.5,3.3c0.2,1.6,1.7,2.7,3.3,2.5l1.5,10.3 c-1.6,0.2-2.7,1.7-2.5,3.3C427.6,371.4,429,372.5,430.6,372.3z"/>
  <path class="desk" d="M385.5,379.4l0.7,5.2l14-2l-0.7-5.2c1.6-0.2,2.7-1.7,2.5-3.3c-0.2-1.6-1.7-2.7-3.3-2.5l-1.5-10.3 c1.6-0.2,2.7-1.7,2.5-3.3c-0.2-1.6-1.7-2.7-3.3-2.5l-1.5-10.3c1.6-0.2,2.7-1.7,2.5-3.3c-0.2-1.6-1.7-2.7-3.3-2.5l-0.7-5.2l-14,2 l0.7,5.2c-1.6,0.2-2.7,1.7-2.5,3.3c0.2,1.6,1.7,2.7,3.3,2.5l1.5,10.3c-1.6,0.2-2.7,1.7-2.5,3.3c0.2,1.6,1.7,2.7,3.3,2.5l1.5,10.3 c-1.6,0.2-2.7,1.7-2.5,3.3C382.5,378.5,383.9,379.6,385.5,379.4z"/>
  <path class="desk" d="M339.9,391.6l14-2l-0.7-5.2c1.6-0.2,2.7-1.7,2.5-3.3c-0.2-1.6-1.7-2.7-3.3-2.5l-1.5-10.3 c1.6-0.2,2.7-1.7,2.5-3.3c-0.2-1.6-1.7-2.7-3.3-2.5l-1.5-10.3c1.6-0.2,2.7-1.7,2.5-3.3s-1.7-2.7-3.3-2.5l-0.7-5.2l-14,2l0.7,5.2 c-1.6,0.2-2.7,1.7-2.5,3.3c0.2,1.6,1.7,2.7,3.3,2.5l1.5,10.3c-1.6,0.2-2.7,1.7-2.5,3.3c0.2,1.6,1.7,2.7,3.3,2.5l1.5,10.3 c-1.6,0.2-2.7,1.7-2.5,3.3c0.2,1.6,1.7,2.7,3.3,2.5L339.9,391.6z"/>
  <path class="desk" d="M475.9,369.9l7-1l-6.8-48.4l-7,1l0.7,5.2c-1.6,0.2-2.7,1.7-2.5,3.3c0.2,1.6,1.7,2.7,3.3,2.5l1.5,10.3 c-1.6,0.2-2.7,1.7-2.5,3.3c0.2,1.6,1.7,2.7,3.3,2.5l1.5,10.3c-1.6,0.2-2.7,1.7-2.5,3.3c0.2,1.6,1.7,2.7,3.3,2.5L475.9,369.9z"/>
  <path class="desk" d="M456,438.3l-1.5-10.3c1.6-0.2,2.7-1.7,2.5-3.3c-0.2-1.6-1.7-2.7-3.3-2.5l-1.5-10.3c1.6-0.2,2.7-1.7,2.5-3.3 c-0.2-1.6-1.7-2.7-3.3-2.5l-0.7-5.2l-14,2l0.7,5.2c-1.6,0.2-2.7,1.7-2.5,3.3c0.2,1.6,1.7,2.7,3.3,2.5l1.5,10.3 c-1.6,0.2-2.7,1.7-2.5,3.3c0.2,1.6,1.7,2.7,3.3,2.5l1.5,10.3c-1.6,0.2-2.7,1.7-2.5,3.3c0.2,1.6,1.7,2.7,3.3,2.5l0.7,5.2l14-2 l-0.7-5.2c1.6-0.2,2.7-1.7,2.5-3.3C459.1,439.2,457.6,438.1,456,438.3z"/>
  <path class="desk" d="M411,445.4l-1.5-10.3c1.6-0.2,2.7-1.7,2.5-3.3c-0.2-1.6-1.7-2.7-3.3-2.5l-1.5-10.3c1.6-0.2,2.7-1.7,2.5-3.3 c-0.2-1.6-1.7-2.7-3.3-2.5l-0.7-5.2l-7,1l6.8,48.4l7-1l-0.7-5.2c1.6-0.2,2.7-1.7,2.5-3.3C414.1,446.3,412.6,445.2,411,445.4z"/>
  <path class="desk" d="M482,401c-1.6,0.2-2.7,1.7-2.5,3.3c0.2,1.6,1.7,2.7,3.3,2.5l1.5,10.3c-1.6,0.2-2.7,1.7-2.5,3.3 c0.2,1.6,1.7,2.7,3.3,2.5l1.5,10.3c-1.6,0.2-2.7,1.7-2.5,3.3c0.2,1.6,1.7,2.7,3.3,2.5l0.7,5.2l7-1l-6.8-48.4l-7,1L482,401z"/>
  <path class="desk" d="M679.3,327.9c0-1.6-1.3-2.9-2.9-2.9v-5.2h-14.1v5.2c-1.6,0-2.9,1.3-2.9,2.9c0,1.6,1.3,2.9,2.9,2.9v10.4 c-1.6,0-2.9,1.3-2.9,2.9c0,1.6,1.3,2.9,2.9,2.9v10.4c-1.6,0-2.9,1.3-2.9,2.9c0,1.6,1.3,2.9,2.9,2.9v5.2h14.1v-5.2 c1.6,0,2.9-1.3,2.9-2.9c0-1.6-1.3-2.9-2.9-2.9v-10.4c1.6,0,2.9-1.3,2.9-2.9c0-1.6-1.3-2.9-2.9-2.9v-10.4 C678,330.9,679.3,329.5,679.3,327.9z"/>
  <path class="desk" d="M366.8,574.7l-1.5-10.3c1.6-0.2,2.7-1.7,2.5-3.3c-0.2-1.6-1.7-2.7-3.3-2.5l-1.5-10.3c1.6-0.2,2.7-1.7,2.5-3.3 c-0.2-1.6-1.7-2.7-3.3-2.5l-1.5-10.3c1.6-0.2,2.7-1.7,2.5-3.3c-0.2-1.6-1.7-2.7-3.3-2.5l-1.5-10.3c1.6-0.2,2.7-1.7,2.5-3.3 c-0.2-1.6-1.7-2.7-3.3-2.5l-1.5-10.3c1.6-0.2,2.7-1.7,2.5-3.3c-0.2-1.6-1.7-2.7-3.3-2.5l-0.7-5.2l-14,2l0.7,5.2 c-1.6,0.2-2.7,1.7-2.5,3.3c0.2,1.6,1.7,2.7,3.3,2.5l1.5,10.3c-1.6,0.2-2.7,1.7-2.5,3.3c0.2,1.6,1.7,2.7,3.3,2.5l1.5,10.3 c-1.6,0.2-2.7,1.7-2.5,3.3c0.2,1.6,1.7,2.7,3.3,2.5l1.5,10.3c-1.6,0.2-2.7,1.7-2.5,3.3c0.2,1.6,1.7,2.7,3.3,2.5l1.5,10.3 c-1.6,0.2-2.7,1.7-2.5,3.3c0.2,1.6,1.7,2.7,3.3,2.5l1.5,10.3c-1.6,0.2-2.7,1.7-2.5,3.3c0.2,1.6,1.7,2.7,3.3,2.5l0.7,5.2l14-2 l-0.7-5.2c1.6-0.2,2.7-1.7,2.5-3.3C369.9,575.6,368.4,574.5,366.8,574.7z"/>
  <path class="desk" d="M322.5,581.8l-1.5-10.3c1.6-0.2,2.7-1.7,2.5-3.3c-0.2-1.6-1.7-2.7-3.3-2.5l-1.5-10.3c1.6-0.2,2.7-1.7,2.5-3.3 c-0.2-1.6-1.7-2.7-3.3-2.5l-1.5-10.3c1.6-0.2,2.7-1.7,2.5-3.3c-0.2-1.6-1.7-2.7-3.3-2.5l-1.5-10.3c1.6-0.2,2.7-1.7,2.5-3.3 c-0.2-1.6-1.7-2.7-3.3-2.5L312,507c1.6-0.2,2.7-1.7,2.5-3.3c-0.2-1.6-1.7-2.7-3.3-2.5l-0.7-5.2l-14,2l0.7,5.2 c-1.6,0.2-2.7,1.7-2.5,3.3c0.2,1.6,1.7,2.7,3.3,2.5l1.5,10.3c-1.6,0.2-2.7,1.7-2.5,3.3c0.2,1.6,1.7,2.7,3.3,2.5l1.5,10.3 c-1.6,0.2-2.7,1.7-2.5,3.3c0.2,1.6,1.7,2.7,3.3,2.5l1.5,10.3c-1.6,0.2-2.7,1.7-2.5,3.3c0.2,1.6,1.7,2.7,3.3,2.5l1.5,10.3 c-1.6,0.2-2.7,1.7-2.5,3.3c0.2,1.6,1.7,2.7,3.3,2.5l1.5,10.3c-1.6,0.2-2.7,1.7-2.5,3.3c0.2,1.6,1.7,2.7,3.3,2.5l0.7,5.2l14-2 l-0.7-5.2c1.6-0.2,2.7-1.7,2.5-3.3C325.6,582.7,324.1,581.6,322.5,581.8z"/>
  <path class="desk" d="M275.4,572.8l-1.5-10.3c1.6-0.2,2.7-1.7,2.5-3.3c-0.2-1.6-1.7-2.7-3.3-2.5l-1.5-10.3c1.6-0.2,2.7-1.7,2.5-3.3 c-0.2-1.6-1.7-2.7-3.3-2.5l-1.5-10.3c1.6-0.2,2.7-1.7,2.5-3.3c-0.2-1.6-1.7-2.7-3.3-2.5l-1.5-10.3c1.6-0.2,2.7-1.7,2.5-3.3 c-0.2-1.6-1.7-2.7-3.3-2.5l-0.7-5.2l-14,2l0.7,5.2c-1.6,0.2-2.7,1.7-2.5,3.3c0.2,1.6,1.7,2.7,3.3,2.5l1.5,10.3 c-1.6,0.2-2.7,1.7-2.5,3.3c0.2,1.6,1.7,2.7,3.3,2.5l1.5,10.3c-1.6,0.2-2.7,1.7-2.5,3.3c0.2,1.6,1.7,2.7,3.3,2.5l1.5,10.3 c-1.6,0.2-2.7,1.7-2.5,3.3c0.2,1.6,1.7,2.7,3.3,2.5l1.5,10.3c-1.6,0.2-2.7,1.7-2.5,3.3c0.2,1.6,1.7,2.7,3.3,2.5l0.7,5.2l14-2 l-0.7-5.2c1.6-0.2,2.7-1.7,2.5-3.3C278.5,573.7,277,572.5,275.4,572.8z"/>
  <path class="desk" d="M407.6,535.4l-1.5-10.3c1.6-0.2,2.7-1.7,2.5-3.3c-0.2-1.6-1.7-2.7-3.3-2.5l-1.5-10.3c1.6-0.2,2.7-1.7,2.5-3.3 c-0.2-1.6-1.7-2.7-3.3-2.5l-1.5-10.3c1.6-0.2,2.7-1.7,2.5-3.3c-0.2-1.6-1.7-2.7-3.3-2.5l-0.7-5.2l-14,2l0.7,5.2 c-1.6,0.2-2.7,1.7-2.5,3.3c0.2,1.6,1.7,2.7,3.3,2.5l1.5,10.3c-1.6,0.2-2.7,1.7-2.5,3.3c0.2,1.6,1.7,2.7,3.3,2.5l1.5,10.3 c-1.6,0.2-2.7,1.7-2.5,3.3c0.2,1.6,1.7,2.7,3.3,2.5l1.5,10.3c-1.6,0.2-2.7,1.7-2.5,3.3c0.2,1.6,1.7,2.7,3.3,2.5l0.7,5.2l14-2 l-0.7-5.2c1.6-0.2,2.7-1.7,2.5-3.3C410.7,536.3,409.2,535.2,407.6,535.4z"/>
  <path class="desk" d="M452.7,528.3l-1.5-10.3c1.6-0.2,2.7-1.7,2.5-3.3c-0.2-1.6-1.7-2.7-3.3-2.5l-1.5-10.3c1.6-0.2,2.7-1.7,2.5-3.3 c-0.2-1.6-1.7-2.7-3.3-2.5l-1.5-10.3c1.6-0.2,2.7-1.7,2.5-3.3c-0.2-1.6-1.7-2.7-3.3-2.5l-0.7-5.2l-14,2l0.7,5.2 c-1.6,0.2-2.7,1.7-2.5,3.3c0.2,1.6,1.7,2.7,3.3,2.5l1.5,10.3c-1.6,0.2-2.7,1.7-2.5,3.3c0.2,1.6,1.7,2.7,3.3,2.5l1.5,10.3 c-1.6,0.2-2.7,1.7-2.5,3.3c0.2,1.6,1.7,2.7,3.3,2.5l1.5,10.3c-1.6,0.2-2.7,1.7-2.5,3.3c0.2,1.6,1.7,2.7,3.3,2.5l0.7,5.2l14-2 l-0.7-5.2c1.6-0.2,2.7-1.7,2.5-3.3C455.8,529.2,454.3,528.1,452.7,528.3z"/>
  <path class="desk" d="M498.4,523.9l-1.5-10.3c1.6-0.2,2.7-1.7,2.5-3.3c-0.2-1.6-1.7-2.7-3.3-2.5l-1.5-10.3c1.6-0.2,2.7-1.7,2.5-3.3 c-0.2-1.6-1.7-2.7-3.3-2.5l-1.5-10.3c1.6-0.2,2.7-1.7,2.5-3.3c-0.2-1.6-1.7-2.7-3.3-2.5l-0.7-5.2l-14,2l0.7,5.2 c-1.6,0.2-2.7,1.7-2.5,3.3c0.2,1.6,1.7,2.7,3.3,2.5l1.5,10.3c-1.6,0.2-2.7,1.7-2.5,3.3c0.2,1.6,1.7,2.7,3.3,2.5l1.5,10.3 c-1.6,0.2-2.7,1.7-2.5,3.3c0.2,1.6,1.7,2.7,3.3,2.5l1.5,10.3c-1.6,0.2-2.7,1.7-2.5,3.3c0.2,1.6,1.7,2.7,3.3,2.5l0.7,5.2l14-2 l-0.7-5.2c1.6-0.2,2.7-1.7,2.5-3.3C501.5,524.8,500,523.6,498.4,523.9z"/>
  <path class="desk" d="M522.8,465.2l0.7,5.2c-1.6,0.2-2.7,1.7-2.5,3.3c0.2,1.6,1.7,2.7,3.3,2.5l1.5,10.3c-1.6,0.2-2.7,1.7-2.5,3.3 c0.2,1.6,1.7,2.7,3.3,2.5l1.5,10.3c-1.6,0.2-2.7,1.7-2.5,3.3c0.2,1.6,1.7,2.7,3.3,2.5l1.5,10.3c-1.6,0.2-2.7,1.7-2.5,3.3 c0.2,1.6,1.7,2.7,3.3,2.5l0.7,5.2l7-1l-9.1-64.5L522.8,465.2z"/>
  <path class="desk" d="M227.5,563.7l-1.5-10.3c1.6-0.2,2.7-1.7,2.5-3.3c-0.2-1.6-1.7-2.7-3.3-2.5l-1.5-10.3c1.6-0.2,2.7-1.7,2.5-3.3 c-0.2-1.6-1.7-2.7-3.3-2.5l-1.5-10.3c1.6-0.2,2.7-1.7,2.5-3.3c-0.2-1.6-1.7-2.7-3.3-2.5l-0.7-5.2l-14,2l0.7,5.2 c-1.6,0.2-2.7,1.7-2.5,3.3c0.2,1.6,1.7,2.7,3.3,2.5l1.5,10.3c-1.6,0.2-2.7,1.7-2.5,3.3c0.2,1.6,1.7,2.7,3.3,2.5l1.5,10.3 c-1.6,0.2-2.7,1.7-2.5,3.3c0.2,1.6,1.7,2.7,3.3,2.5l1.5,10.3c-1.6,0.2-2.7,1.7-2.5,3.3c0.2,1.6,1.7,2.7,3.3,2.5l0.7,5.2l14-2 l-0.7-5.2c1.6-0.2,2.7-1.7,2.5-3.3C230.5,564.6,229.1,563.5,227.5,563.7z"/>
  <path class="desk" d="M184.1,569.1l-1.5-10.3c1.6-0.2,2.7-1.7,2.5-3.3c-0.2-1.6-1.7-2.7-3.3-2.5l-1.5-10.3c1.6-0.2,2.7-1.7,2.5-3.3 c-0.2-1.6-1.7-2.7-3.3-2.5l-1.5-10.3c1.6-0.2,2.7-1.7,2.5-3.3c-0.2-1.6-1.7-2.7-3.3-2.5l-0.7-5.2l-7,1l9.1,64.5l7-1l-0.7-5.2 c1.6-0.2,2.7-1.7,2.5-3.3C187.2,570,185.7,568.9,184.1,569.1z"/>
  <rect class="dark-green" x="98.2" y="406.7" transform="matrix(0.9903 -0.1392 0.1392 0.9903 -61.8389 22.8489)" width="68.6" height="93.8"/>
  <rect class="dark-green" x="281.8" y="415.7" transform="matrix(0.9903 -0.1392 0.1392 0.9903 -58.8305 49.0795)" width="79.5" height="58.9"/>
  <rect class="dark-green" x="239.9" y="425.5" transform="matrix(0.9903 -0.1392 0.1392 0.9903 -60.8536 39.6797)"  width="26.7" height="58.9"/>
  <rect class="dark-green" x="662.2" y="368.7" width="22.3" height="57"/>
  <polygon class="dark-green" points="1145.4,477 1107.1,477 1107.1,525.9 1121.5,543.6 1168.4,497.7"/>
  <polygon class="dark-green" points="824.3,368.7 701.1,368.7 701.1,425.6 842.6,425.6 842.6,368.7 842.6,346.2 824.3,346.2"/>
  <rect class="dark-green" x="1040.5" y="365.6" width="25.4" height="61.9"/>		
  <rect class="theDen rec-area-outline" x="89.4" y="355.7" transform="matrix(-0.9903 0.1392 -0.1392 -0.9903 270.2027 757.5651)" width="38.5" height="65"/>
  <rect class="gym rec-area" x="636.7" y="493.6" width="95.6" height="82.3"/>
  <polygon class="gameRoom rec-area-outline" points="1092.5,340.6 1047,235.7 1081.8,202.5 1156.2,277"/>			
  <rect class="reality meeting-room" x="445.2" y="272.4" transform="matrix(0.9903 -0.1392 0.1392 0.9903 -36.1072 67.7637)" width="42.5" height="39.3"/>
  <path class="dark-green" d="M484.3,270.2l5.3,38l-41.1,5.8l-5.3-38L484.3,270.2 M485.2,269.1l-43,6.1l5.6,39.9l43-6.1L485.2,269.1 L485.2,269.1z"/>
  <rect class="revloution meeting-room" x="406.5" y="278.2" transform="matrix(0.9903 -0.1392 0.1392 0.9903 -37.3063 62.2034)" width="39.3" height="39.3"/>
  <path class="dark-green" d="M442.4,276.2l5.3,38l-38,5.3l-5.3-38L442.4,276.2 M443.3,275.1l-39.9,5.6l5.6,39.9l39.9-5.6L443.3,275.1 L443.3,275.1z"/>
  <rect class="chaos meeting-room" x="347.8" y="284.9" transform="matrix(0.9903 -0.1392 0.1392 0.9903 -38.7174 55.4882)" width="59.1" height="39.3"/>
  <path class="dark-green" d="M403.5,281.6l5.3,38l-57.5,8.1l-5.3-38L403.5,281.6 M404.3,280.4l-59.5,8.4l5.6,39.9l59.5-8.4L404.3,280.4 L404.3,280.4z"/>
  <rect class="pi meeting-room" x="125.8" y="349.6" transform="matrix(0.9903 -0.1392 0.1392 0.9903 -49.6503 25.0015)" width="56.3" height="35.9"/>
  <path class="dark-green" d="M178.9,346.4l4.9,34.5l-54.8,7.7l-4.9-34.5L178.9,346.4 M179.7,345.3l-56.7,8l5.1,36.5l56.7-8L179.7,345.3 L179.7,345.3z"/>
  <rect class="code meeting-room" x="118.3" y="571.6" transform="matrix(0.9903 -0.1392 0.1392 0.9903 -80.8189 24.8224)" width="37.5" height="37.5"/>
  <path class="dark-green" d="M152.6,569.7l5.1,36.1l-36.1,5.1l-5.1-36.1L152.6,569.7 M153.4,568.6l-38.1,5.4l5.4,38.1l38.1-5.4 L153.4,568.6L153.4,568.6z"/>
  <rect class="theLab meeting-room" x="112" y="519.5" transform="matrix(0.9903 -0.1392 0.1392 0.9903 -74.6894 23.509)" width="37.5" height="52.4"/>
  <path class="dark-green" d="M145.2,517.7l7.2,50.9l-36.1,5.1l-7.2-50.9L145.2,517.7 M146,516.6l-38.1,5.4l7.4,52.9l38.1-5.4L146,516.6 L146,516.6z"/>
  <rect class="gravity meeting-room" x="482.7" y="545.4" transform="matrix(0.9903 -0.1392 0.1392 0.9903 -73.6642 75.8206)" width="45.1" height="38.3"/>
  <path class="dark-green" d="M524.5,543l5.2,37l-43.6,6.1l-5.2-37L524.5,543 M525.3,541.9l-45.6,6.4l5.5,39l45.6-6.4L525.3,541.9 L525.3,541.9z"/>
  <rect class="reaction meeting-room" x="440.8" y="551.5" transform="matrix(0.9903 -0.1392 0.1392 0.9903 -74.9337 69.8561)" width="42.4" height="38.3"/>
  <path class="dark-green" d="M479.9,549.3l5.2,37l-41,5.8l-5.2-37L479.9,549.3 M480.8,548.2l-43,6l5.5,39l43-6L480.8,548.2L480.8,548.2z"/>
  <rect class="think meeting-room" x="732.8" y="494.1" width="32.3" height="32.3"/>
  <path class="dark-green" d="M764.6,494.6v31.3h-31.3v-31.3H764.6 M765.6,493.6h-33.3v33.3h33.3V493.6L765.6,493.6z"/>
  <rect class="roots meeting-room" x="732.8" y="526.4" width="32.3" height="48.8"/>
  <path class="dark-green" d="M764.6,526.9v47.8h-31.3v-47.8H764.6 M765.6,525.9h-33.3v49.8h33.3V525.9L765.6,525.9z"/>
  <rect class="rainmaker meeting-room" x="635.5" y="233.9" width="83.4" height="52.9"/>
  <path class="dark-green" d="M718.4,234.4v51.9H636v-51.9H718.4 M719.4,233.4H635v53.9h84.4V233.4L719.4,233.4z"/>
  <path class="t1 meeting-room-two" d="M791.6,234.1c0,48.9,39.7,88.6,88.6,88.6c48.9,0,88.6-39.7,88.6-88.6"/>
  <rect class="t2 meeting-room" x="702.4" y="336.6" width="33.1" height="31.6"/>
  <path class="dark-green" d="M735,337.1v30.6h-32.1v-30.6H735 M736,336.1h-34.1v32.6H736V336.1L736,336.1z"/>
  <rect class="t3 meeting-room" x="788.7" y="336.6" width="35.1" height="31.6"/>
  <path class="dark-green" d="M823.3,337.1v30.6h-34.1v-30.6H823.3 M824.3,336.1h-36.1v32.6h36.1V336.1L824.3,336.1z"/>
  <rect class="t4 meeting-room" x="735.5" y="336.6" width="53.2" height="31.6"/>
  <path class="dark-green" d="M788.2,337.1v30.6H736v-30.6H788.2 M789.2,336.1H735v32.6h54.2V336.1L789.2,336.1z"/>
  <rect class="t5 meeting-room" x="843.1" y="366.1" width="35.9" height="31.4"/>
  <path class="dark-green" d="M878.5,366.6V397h-34.9v-30.4H878.5 M879.5,365.6h-36.9V398h36.9V365.6L879.5,365.6z"/>
  <rect class="meeting-room-two" x="895.5" y="398" width="47.7" height="29.5"/>
  <rect class="meeting-room-two" x="902.5" y="347" width="34.4" height="51"/>
  <rect class="meeting-room-two" x="959.3" y="365.6" width="32.4" height="32.4"/>
  <rect class="t6 meeting-room" x="1006.7" y="366.1" width="33.3" height="60.9"/>
  <path class="dark-green" d="M1039.5,366.6v59.9h-32.3v-59.9H1039.5 M1040.5,365.6h-34.3v61.9h34.3V365.6L1040.5,365.6z"/>
  <polygon class="outline" points="1273.5,395.4 1081.8,202.5 1047,235.7 635,233.8 635,287.2 490.8,309 485.1,269.4 162.6,314.6 167.3,347 85,358.9 120.7,612.1 204.3,600.2 208.8,628.6 530.7,580.9 525,542 636.6,525.4 637.2,576.1 1121.5,574.3 1121.5,543.5 "/>
</svg>