<?xml version="1.0" encoding="utf-8"?>
<svg version="1.1" id="Map" xmlns="http://www.w3.org/2000/svg" xmlns:xlink="http://www.w3.org/1999/xlink" x="0px" y="0px"
	 viewBox="0 0 1413 911" style="enable-background:new 0 0 1413 911;" xml:space="preserve">
<style type="text/css">
	.white{fill:#F7F7F7;}
	.stair-dark{fill:#9FA3A3;}
	.stair-light, .desk{fill:#D9D9D9;}
  .stair-landing {fill: #b6b7b7;}
	.dark-step{fill:none;stroke:#D9D9D9;stroke-width:0.75;stroke-miterlimit:10;}
	.light-step{fill:none;stroke:#9FA3A3;stroke-width:0.75;stroke-miterlimit:10;}
	.dark-green{fill:#004347;}
	.meeting-room{fill:#6FBB84;}
	.private-room{fill:#D9D9D9;stroke:#004347;stroke-miterlimit:10;}
	.outline{fill:none;stroke:#004347;stroke-width:3;stroke-miterlimit:10;}
</style>
<polygon class="white" points="1273.5,395.4 1081.8,202.5 1047,235.7 635,233.8 635,287.2 490.8,309 485.1,269.4 162.6,314.6	167.3,347 85,358.9 120.7,612.1 204.3,600.2 208.8,628.6 530.7,580.9 525,542 636.6,525.4 637.2,576.1 1121.5,574.3 1121.5,543.5"/>
<rect class="stair-dark" x="610.3" y="320.5" width="26.8" height="82.9"/>
<line class="dark-step" x1="610.2" y1="323.9" x2="637" y2="323.9"/>
<line class="dark-step" x1="610.2" y1="327.5" x2="637" y2="327.5"/>
<line class="dark-step" x1="610.2" y1="331" x2="637" y2="331"/>
<line class="dark-step" x1="610.2" y1="334.6" x2="637" y2="334.6"/>
<line class="dark-step" x1="610.2" y1="338" x2="637" y2="338"/>
<line class="dark-step" x1="610.2" y1="341.6" x2="637" y2="341.6"/>
<line class="dark-step" x1="610.2" y1="345" x2="637" y2="345"/>
<line class="dark-step" x1="610.2" y1="348.6" x2="637" y2="348.6"/>
<line class="dark-step" x1="610.2" y1="352" x2="637" y2="352"/>
<line class="dark-step" x1="610.2" y1="369.7" x2="637" y2="369.7"/>
<line class="dark-step" x1="610.2" y1="373.1" x2="637" y2="373.1"/>
<line class="dark-step" x1="610.2" y1="376.7" x2="637" y2="376.7"/>
<line class="dark-step" x1="610.2" y1="380.1" x2="637" y2="380.1"/>
<line class="dark-step" x1="610.2" y1="383.7" x2="637" y2="383.7"/>
<line class="dark-step" x1="610.2" y1="387.1" x2="637" y2="387.1"/>
<line class="dark-step" x1="610.2" y1="390.7" x2="637" y2="390.7"/>
<line class="dark-step" x1="610.2" y1="394.1" x2="637" y2="394.1"/>
<line class="dark-step" x1="610.2" y1="397.7" x2="637" y2="397.7"/>
<line class="dark-step" x1="610.2" y1="401.2" x2="637" y2="401.2"/>
<rect class="stair-light" x="610.2" y="352" width="26.8" height="17.6"/>
<rect class="stair-dark" x="194" y="477.4" transform="matrix(0.9903 -0.1392 0.1392 0.9903 -65.348 33.9064)"  width="31.5" height="13.4"/>
<line class="dark-step" x1="198.5" y1="492.5" x2="196.6" y2="479.3"/>
<line class="dark-step" x1="202" y1="492" x2="200.2" y2="478.8"/>
<line class="dark-step" x1="205.4" y1="491.5" x2="203.6" y2="478.3"/>
<line class="dark-step" x1="209" y1="491" x2="207.1" y2="477.8"/>
<line class="dark-step" x1="212.4" y1="490.6" x2="210.5" y2="477.3"/>
<line class="dark-step" x1="215.9" y1="490.1" x2="214.1" y2="476.8"/>
<line class="dark-step" x1="219.3" y1="489.6" x2="217.5" y2="476.3"/>
<line class="dark-step" x1="222.9" y1="489.1" x2="221" y2="475.8"/>
<rect class="stair-light" x="191.8" y="462.3" transform="matrix(0.9903 -0.1392 0.1392 0.9903 -63.2641 33.459)" width="31.5" height="13.4"/>
<line class="light-step" x1="196.3" y1="477.4" x2="194.5" y2="464.1"/>
<line class="light-step" x1="199.9" y1="476.9" x2="198" y2="463.6"/>
<line class="light-step" x1="203.3" y1="476.4" x2="201.4" y2="463.1"/>
<line class="light-step" x1="206.9" y1="475.9" x2="205" y2="462.6"/>
<line class="light-step" x1="210.2" y1="475.4" x2="208.4" y2="462.1"/>
<line class="light-step" x1="213.8" y1="474.9" x2="211.9" y2="461.6"/>
<line class="light-step" x1="217.2" y1="474.4" x2="215.3" y2="461.2"/>
<line class="light-step" x1="220.8" y1="473.9" x2="218.9" y2="460.7"/>
<rect class="stair-landing" x="224.2" y="458.8" transform="matrix(0.9903 -0.1392 0.1392 0.9903 -63.5868 37.045)" width="17.6" height="28.7"/>
<rect class="stair-dark" x="1082.6" y="399" width="31.5" height="13.4"/>
<line class="dark-step" x1="1110.7" y1="399" x2="1110.7" y2="412.4"/>
<line class="dark-step" x1="1107.1" y1="399" x2="1107.1" y2="412.4"/>
<line class="dark-step" x1="1103.7" y1="399" x2="1103.7" y2="412.4"/>
<line class="dark-step" x1="1100.1" y1="399" x2="1100.1" y2="412.4"/>
<line class="dark-step" x1="1096.7" y1="399" x2="1096.7" y2="412.4"/>
<line class="dark-step" x1="1093.1" y1="399" x2="1093.1" y2="412.4"/>
<line class="dark-step" x1="1089.7" y1="399" x2="1089.7" y2="412.4"/>
<line class="dark-step" x1="1086.1" y1="399" x2="1086.1" y2="412.4"/>
<rect class="stair-light" x="1082.6" y="414.5" width="31.5" height="13.4"/>
<line class="light-step" x1="1111.6" y1="414.5" x2="1111.6" y2="427.9"/>
<line class="light-step" x1="1108" y1="414.5" x2="1108" y2="427.9"/>
<line class="light-step" x1="1104.6" y1="414.5" x2="1104.6" y2="427.9"/>
<line class="light-step" x1="1101" y1="414.5" x2="1101" y2="427.9"/>
<line class="light-step" x1="1097.6" y1="414.5" x2="1097.6" y2="427.9"/>
<line class="light-step" x1="1094" y1="414.5" x2="1094" y2="427.9"/>
<line class="light-step" x1="1090.5" y1="414.5" x2="1090.5" y2="427.9"/>
<line class="light-step" x1="1086.9" y1="414.5" x2="1086.9" y2="427.9"/>
<rect class="stair-landing" x="1065.1" y="399.2" width="17.6" height="28.7"/>
<path class="desk" d="M248.7,354.3l-1.5-10.3c1.6-0.2,2.7-1.7,2.5-3.3c-0.2-1.6-1.7-2.7-3.3-2.5l-1.4-10.3c1.6-0.2,2.7-1.7,2.5-3.3 s-1.7-2.7-3.3-2.5l-0.7-5.2l-7,1l6.8,48.3l6.9-0.9l-0.7-5.2c1.6-0.2,2.7-1.7,2.5-3.3C251.8,355.2,250.3,354.1,248.7,354.3z"/>
<path class="desk" d="M123.1,506.3c1.6-0.2,2.7-1.7,2.5-3.3l10.4-1.4c0.2,1.6,1.7,2.7,3.3,2.5c1.6-0.2,2.7-1.7,2.5-3.3l10.3-1.5 c0.2,1.6,1.7,2.7,3.3,2.5c1.6-0.2,2.7-1.7,2.5-3.3l5.2-0.7l-2-14l-5.2,0.7c-0.2-1.6-1.7-2.7-3.3-2.5c-1.6,0.2-2.7,1.7-2.5,3.3 l-10.4,1.4c-0.2-1.6-1.7-2.7-3.3-2.5c-1.6,0.2-2.7,1.7-2.5,3.3l-10.3,1.5c-0.2-1.6-1.7-2.7-3.3-2.5c-1.6,0.2-2.7,1.7-2.5,3.3 l-5.2,0.7l2,14l5.2-0.7C120,505.4,121.5,506.5,123.1,506.3z"/>
<path class="desk" d="M117.1,467.5c1.6-0.2,2.7-1.7,2.5-3.3l10.3-1.5c0.2,1.6,1.7,2.7,3.3,2.5c1.6-0.2,2.7-1.7,2.5-3.3l10.3-1.4 c0.2,1.6,1.7,2.7,3.3,2.5c1.6-0.2,2.7-1.7,2.5-3.3l5.2-0.7l-2-14.1l-5.2,0.7c-0.2-1.6-1.7-2.7-3.3-2.5c-1.6,0.2-2.7,1.7-2.5,3.3 l-10.3,1.5c-0.2-1.6-1.7-2.7-3.3-2.5c-1.6,0.2-2.7,1.7-2.5,3.3l-10.4,1.4c-0.2-1.6-1.7-2.7-3.3-2.5c-1.6,0.2-2.7,1.7-2.5,3.3 l-5.2,0.7l2.1,14.1l5.2-0.7C114,466.6,115.5,467.7,117.1,467.5z"/>
<path class="desk" d="M111.8,426.1c1.6-0.2,2.7-1.7,2.5-3.3l10.3-1.5c0.2,1.6,1.7,2.7,3.3,2.5c1.6-0.2,2.7-1.7,2.5-3.3l10.4-1.5 c0.2,1.6,1.7,2.7,3.3,2.5c1.6-0.2,2.7-1.7,2.5-3.3l10.3-1.4c0.2,1.6,1.7,2.7,3.3,2.5c1.6-0.2,2.7-1.7,2.5-3.3l5.2-0.7l-2-14.1 l-5.2,0.7c-0.2-1.6-1.7-2.7-3.3-2.5c-1.6,0.2-2.7,1.7-2.5,3.3l-10.4,1.5c-0.2-1.6-1.7-2.7-3.3-2.5c-1.6,0.2-2.7,1.7-2.5,3.3 l-10.3,1.4c-0.2-1.6-1.7-2.7-3.3-2.5c-1.6,0.2-2.7,1.7-2.5,3.3l-10.3,1.5c-0.2-1.6-1.7-2.7-3.3-2.5c-1.6,0.2-2.7,1.7-2.5,3.3 l-5.2,0.7l2,14.1l5.2-0.7C108.7,425.2,110.2,426.3,111.8,426.1z"/>
<path class="desk" d="M128,545.6c1.6-0.2,2.7-1.7,2.5-3.3l10.4-1.4c0.2,1.6,1.7,2.7,3.3,2.5c1.6-0.2,2.7-1.7,2.5-3.3l10.3-1.5 c0.2,1.6,1.7,2.7,3.3,2.5c1.6-0.2,2.7-1.7,2.5-3.3l10.3-1.5c0.2,1.6,1.7,2.7,3.3,2.5c1.6-0.2,2.7-1.7,2.5-3.3l10.3-1.4 c0.2,1.6,1.7,2.7,3.3,2.5c1.6-0.2,2.7-1.7,2.5-3.3l5.2-0.7l-2.1-14.1l-5.2,0.7c-0.2-1.6-1.7-2.7-3.3-2.5c-1.6,0.2-2.7,1.7-2.5,3.3 l-10.2,1.5c-0.2-1.6-1.7-2.7-3.3-2.5c-1.6,0.2-2.7,1.7-2.5,3.3l-10.3,1.5c-0.2-1.6-1.7-2.7-3.3-2.5c-1.6,0.2-2.7,1.7-2.5,3.3 l-10.4,1.4c-0.2-1.6-1.7-2.7-3.3-2.5c-1.6,0.2-2.7,1.7-2.5,3.3l-10.3,1.5c-0.2-1.6-1.7-2.7-3.3-2.5s-2.7,1.7-2.5,3.3l-5.2,0.7 l2,14l5.2-0.7C124.9,544.7,126.4,545.8,128,545.6z"/>
<path class="desk" d="M205.7,560.6l-5.2,0.7c-0.2-1.6-1.7-2.7-3.3-2.5c-1.6,0.2-2.7,1.7-2.5,3.3l-10.3,1.5 c-0.2-1.6-1.7-2.7-3.3-2.5c-1.6,0.2-2.7,1.7-2.5,3.3l-10.3,1.5c-0.2-1.6-1.7-2.7-3.3-2.5c-1.6,0.2-2.7,1.7-2.5,3.3l-10.4,1.4 c-0.2-1.6-1.7-2.7-3.3-2.5c-1.6,0.2-2.7,1.7-2.5,3.3l-10.3,1.5c-0.2-1.6-1.7-2.7-3.3-2.5c-1.6,0.2-2.7,1.7-2.5,3.3l-5.2,0.7 l1.9,13.9l5.2-0.7c0.2,1.6,1.7,2.7,3.3,2.5c1.6-0.2,2.7-1.7,2.5-3.3l10.3-1.5c0.2,1.6,1.7,2.7,3.3,2.5c1.6-0.2,2.7-1.7,2.5-3.3 l10.3-1.5c0.2,1.6,1.7,2.7,3.3,2.5c1.6-0.2,2.7-1.7,2.5-3.3l10.4-1.4c0.2,1.6,1.7,2.7,3.3,2.5c1.6-0.2,2.7-1.7,2.5-3.3l10.3-1.5 c0.2,1.6,1.7,2.7,3.3,2.5c1.6-0.2,2.7-1.7,2.5-3.3l5.2-0.7L205.7,560.6z"/>
<path class="desk" d="M106,386.4c1.6-0.2,2.7-1.7,2.5-3.3l10.4-1.4c0.2,1.6,1.7,2.7,3.3,2.5c1.6-0.2,2.7-1.7,2.5-3.3l10.3-1.5 c0.2,1.6,1.7,2.7,3.3,2.5c1.6-0.2,2.7-1.7,2.5-3.3l10.3-1.5c0.2,1.6,1.7,2.7,3.3,2.5c1.6-0.2,2.7-1.7,2.5-3.3l10.4-1.4 c0.2,1.6,1.7,2.7,3.3,2.5c1.6-0.2,2.7-1.7,2.5-3.3l5.2-0.7l-1-7l-80.7,11.3l0.9,6.9l5.2-0.7C102.9,385.5,104.4,386.6,106,386.4z" />
<path class="desk" d="M277,322.3l1.5,10.3c-1.6,0.2-2.7,1.7-2.5,3.3c0.2,1.6,1.7,2.7,3.3,2.5l1.4,10.4c-1.6,0.2-2.7,1.7-2.5,3.3 c0.2,1.6,1.7,2.7,3.3,2.5l0.7,5.2l14.1-2.1l-0.7-5.2c1.6-0.2,2.7-1.7,2.5-3.3c-0.2-1.6-1.7-2.7-3.3-2.5l-1.5-10.3 c1.6-0.2,2.7-1.7,2.5-3.3s-1.7-2.7-3.3-2.5l-1.4-10.3c1.6-0.2,2.7-1.7,2.5-3.3c-0.2-1.6-1.7-2.7-3.3-2.5l-0.7-5.2l-14.1,2l0.7,5.2 c-1.6,0.2-2.7,1.7-2.5,3.3S275.4,322.5,277,322.3z"/>
<path class="desk" d="M316.4,323c0.2,1.6,1.7,2.7,3.3,2.5c1.6-0.2,2.7-1.7,2.5-3.3l10.3-1.5c0.2,1.6,1.7,2.7,3.3,2.5 c1.6-0.2,2.7-1.7,2.5-3.3l10.4-1.4c0.2,1.6,1.7,2.7,3.3,2.5c1.6-0.2,2.7-1.7,2.5-3.3l10.3-1.5c0.2,1.6,1.7,2.7,3.3,2.5 s2.7-1.7,2.5-3.3l10.3-1.5c0.2,1.6,1.7,2.7,3.3,2.5c1.6-0.2,2.7-1.7,2.5-3.3l5.2-0.7l-1-7l-80.6,11.4l0.9,6.9L316.4,323z"/>
<path class="desk" d="M378.5,366l5.2-0.7c0.2,1.6,1.7,2.7,3.3,2.5c1.6-0.2,2.7-1.7,2.5-3.3l10.3-1.5c0.2,1.6,1.7,2.7,3.3,2.5 s2.7-1.7,2.5-3.3l10.3-1.4c0.2,1.6,1.7,2.7,3.3,2.5c1.6-0.2,2.7-1.7,2.5-3.3l10.4-1.5c0.2,1.6,1.7,2.7,3.3,2.5s2.7-1.7,2.5-3.3 l10.3-1.5c0.2,1.6,1.7,2.7,3.3,2.5c1.6-0.2,2.7-1.7,2.5-3.3l5.2-0.7l-1-7l-32.2,4.6l-0.9-7.1l-5.2,0.7c-0.2-1.6-1.7-2.7-3.3-2.5 c-1.6,0.2-2.7,1.7-2.5,3.3l-10.3,1.5c-0.2-1.6-1.7-2.7-3.3-2.5s-2.7,1.7-2.5,3.3l-10.3,1.5c-0.2-1.6-1.7-2.7-3.3-2.5 c-1.6,0.2-2.7,1.7-2.5,3.3l-10.4,1.4c-0.2-1.6-1.7-2.7-3.3-2.5s-2.7,1.7-2.5,3.3l-10.3,1.5c-0.2-1.6-1.7-2.7-3.3-2.5 c-1.6,0.2-2.7,1.7-2.5,3.3l-5.2,0.7l1,7l16.1-2.3l16.1-2.3L378.5,366z"/>
<path class="desk" d="M454.7,391.6c-1.6,0.2-2.7,1.7-2.5,3.3l-10.4,1.5c-0.2-1.6-1.7-2.7-3.3-2.5s-2.7,1.7-2.5,3.3l-10.3,1.4 c-0.2-1.6-1.7-2.7-3.3-2.5c-1.6,0.2-2.7,1.7-2.5,3.3l-10.3,1.5c-0.2-1.6-1.7-2.7-3.3-2.5s-2.7,1.7-2.5,3.3l-5.2,0.7l2,14.1 l5.2-0.7c0.2,1.6,1.7,2.7,3.3,2.5s2.7-1.7,2.5-3.3l10.3-1.5c0.2,1.6,1.7,2.7,3.3,2.5c1.6-0.2,2.7-1.7,2.5-3.3l10.4-1.5 c0.2,1.6,1.7,2.7,3.3,2.5s2.7-1.7,2.5-3.3l10.3-1.4c0.2,1.6,1.7,2.7,3.3,2.5c1.6-0.2,2.7-1.7,2.5-3.3l5.2-0.7l-2-14.1l-5.2,0.7 C457.8,392.5,456.3,391.4,454.7,391.6z"/>
<path class="desk" d="M462.5,440.9l-10.4,1.5c-0.2-1.6-1.7-2.7-3.3-2.5s-2.7,1.7-2.5,3.3l-10.3,1.4c-0.2-1.6-1.7-2.7-3.3-2.5 s-2.7,1.7-2.5,3.3l-10.3,1.5c-0.2-1.6-1.7-2.7-3.3-2.5c-1.6,0.2-2.7,1.7-2.5,3.3l-5.2,0.7l1,7l80.6-11.4l-0.9-6.9l-5.2,0.7 c-0.2-1.6-1.7-2.7-3.3-2.5c-1.6,0.2-2.7,1.7-2.5,3.3l-10.3,1.5c-0.2-1.6-1.7-2.7-3.3-2.5S462.3,439.3,462.5,440.9z"/>
<path class="desk" d="M295.5,500.7c1.6-0.2,2.7-1.7,2.5-3.3l10.3-1.4c0.2,1.6,1.7,2.7,3.3,2.4c1.6-0.2,2.7-1.7,2.5-3.3l10.4-1.4 c0.2,1.6,1.7,2.7,3.3,2.4c1.6-0.2,2.7-1.7,2.5-3.3l5.2-0.7l-1-6.8l-64.5,9.1l0.9,6.8l5.2-0.7c0.2,1.6,1.7,2.7,3.3,2.4 c1.6-0.2,2.7-1.7,2.5-3.3l10.3-1.3C292.4,499.9,293.9,501,295.5,500.7z"/>
<path class="desk" d="M376.7,486.5l10.3-1.4c0.2,1.6,1.7,2.7,3.3,2.4c1.6-0.2,2.7-1.7,2.5-3.3l10.4-1.4c0.2,1.6,1.7,2.7,3.3,2.4 c1.6-0.2,2.7-1.7,2.5-3.3l5.2-0.7l-1-6.8l-48.4,6.9l0.9,6.8l5.2-0.7c0.2,1.6,1.7,2.7,3.3,2.4C375.8,489.6,376.9,488.1,376.7,486.5 z"/>
<path class="desk" d="M384.8,542.2c1.6-0.2,2.7-1.7,2.5-3.3l10.3-1.4c0.2,1.6,1.7,2.7,3.3,2.5s2.7-1.7,2.5-3.3l10.4-1.5 c0.2,1.6,1.7,2.7,3.3,2.5s2.7-1.7,2.5-3.3l5.2-0.7l-2.1-14l-5.2,0.7c-0.2-1.6-1.7-2.7-3.3-2.5s-2.7,1.7-2.5,3.3l-10.3,1.4 c-0.2-1.6-1.7-2.7-3.3-2.5c-1.6,0.2-2.7,1.7-2.5,3.3l-10.3,1.5c-0.2-1.6-1.7-2.7-3.3-2.5s-2.7,1.7-2.5,3.3l-5.2,0.7l2,14l5.2-0.7 C381.7,541.3,383.2,542.4,384.8,542.2z"/>
<path class="desk" d="M446.5,529.1l-1.5-10.3c1.6-0.2,2.7-1.7,2.5-3.3s-1.7-2.7-3.3-2.5l-1.5-10.4c1.6-0.2,2.7-1.7,2.5-3.3 c-0.2-1.6-1.7-2.7-3.3-2.5l-1.4-10.3c1.6-0.2,2.7-1.7,2.5-3.3c-0.2-1.6-1.7-2.7-3.3-2.5l-0.7-5.2l-7,1l9.1,64.5l6.9-0.9l-0.7-5.2 c1.6-0.2,2.7-1.7,2.5-3.3S448.1,528.9,446.5,529.1z"/>
<path class="desk" d="M493.5,521l-1.5-10.3c1.6-0.2,2.7-1.7,2.5-3.3c-0.2-1.6-1.7-2.7-3.3-2.5l-1.4-10.3c1.6-0.2,2.7-1.7,2.5-3.3 c-0.2-1.6-1.7-2.7-3.3-2.5l-1.5-10.4c1.6-0.2,2.7-1.7,2.5-3.3s-1.7-2.7-3.3-2.5l-0.7-5.2l-14,2.1l0.7,5.2 c-1.6,0.2-2.7,1.7-2.5,3.3s1.7,2.7,3.3,2.5l1.4,10.3c-1.6,0.2-2.7,1.7-2.5,3.3c0.2,1.6,1.7,2.7,3.3,2.5l1.5,10.3 c-1.6,0.2-2.7,1.7-2.5,3.3s1.7,2.7,3.3,2.5l1.5,10.4c-1.6,0.2-2.7,1.7-2.5,3.3s1.7,2.7,3.3,2.5l0.7,5.2l14-2.1l-0.7-5.2 c1.6-0.2,2.7-1.7,2.5-3.3S495.1,520.8,493.5,521z"/>
<path class="desk" d="M304.6,554.4c1.6-0.2,2.7-1.7,2.5-3.3l10.3-1.4c0.2,1.6,1.7,2.7,3.3,2.5c1.6-0.2,2.7-1.7,2.5-3.3l10.3-1.5 c0.2,1.6,1.7,2.7,3.3,2.5c1.6-0.2,2.7-1.7,2.5-3.3l5.2-0.7l-2-14.1l-5.2,0.7c-0.2-1.6-1.7-2.7-3.3-2.5s-2.7,1.7-2.5,3.3l-10.3,1.5 c-0.2-1.6-1.7-2.7-3.3-2.5c-1.6,0.2-2.7,1.7-2.5,3.3l-10.4,1.5c-0.2-1.6-1.7-2.7-3.3-2.5s-2.7,1.7-2.5,3.3l-5.2,0.7l2.1,14 l5.2-0.7C301.5,553.5,303,554.6,304.6,554.4z"/>
<path class="desk" d="M344.9,586.8c-0.2-1.6-1.7-2.7-3.3-2.4c-1.6,0.2-2.7,1.7-2.5,3.3l-10.4,1.4c-0.2-1.6-1.7-2.7-3.3-2.4 c-1.6,0.2-2.7,1.7-2.5,3.3l-10.3,1.4c-0.2-1.6-1.7-2.7-3.3-2.4c-1.6,0.2-2.7,1.7-2.5,3.3l-5.2,0.7l1,6.8L351,593l-0.9-6.9 L344.9,586.8z"/>
<path class="desk" d="M424.1,573.7c-0.2-1.6-1.7-2.7-3.3-2.4c-1.6,0.2-2.7,1.7-2.5,3.3L408,576c-0.2-1.6-1.7-2.7-3.3-2.4 c-1.6,0.2-2.7,1.7-2.5,3.3l-10.4,1.4c-0.2-1.6-1.7-2.7-3.3-2.4c-1.6,0.2-2.7,1.7-2.5,3.3l-5.2,0.7l1,6.8l48.4-6.9l-0.9-6.8 L424.1,573.7z"/>
<path class="desk" d="M542.4,513.4l-1.5-10.3c1.6-0.2,2.7-1.7,2.5-3.3c-0.2-1.6-1.7-2.7-3.3-2.5l-1.4-10.3c1.6-0.2,2.7-1.7,2.5-3.3 c-0.2-1.6-1.7-2.7-3.3-2.5l-1.5-10.3c1.6-0.2,2.7-1.7,2.5-3.3s-1.7-2.7-3.3-2.5l-0.7-5.2l-14.1,2l0.7,5.2 c-1.6,0.2-2.7,1.7-2.5,3.3c0.2,1.6,1.7,2.7,3.3,2.5l1.5,10.3c-1.6,0.2-2.7,1.7-2.5,3.3s1.7,2.7,3.3,2.5l1.5,10.3 c-1.6,0.2-2.7,1.7-2.5,3.3c0.2,1.6,1.7,2.7,3.3,2.5l1.5,10.4c-1.6,0.2-2.7,1.7-2.5,3.3s1.7,2.7,3.3,2.5l0.7,5.2l14-2.1l-0.7-5.2 c1.6-0.2,2.7-1.7,2.5-3.3S544,513.2,542.4,513.4z"/>
<path class="desk" d="M568,453.3l0.7,5.2c-1.6,0.2-2.7,1.7-2.5,3.3s1.7,2.7,3.3,2.5l1.5,10.4c-1.6,0.2-2.7,1.7-2.5,3.3 s1.7,2.7,3.3,2.5l1.5,10.3c-1.6,0.2-2.7,1.7-2.5,3.3c0.2,1.6,1.7,2.7,3.3,2.5l1.4,10.3c-1.6,0.2-2.7,1.7-2.5,3.3s1.7,2.7,3.3,2.5 l0.7,5.2l7-1l-9.1-64.5L568,453.3z"/>
<path class="desk" d="M693.8,452.9c0-1.6-1.3-2.9-2.9-2.9v-5.2l-14.1-0.2v0.1v5.2c-1.6,0-2.9,1.3-2.9,2.9c0,1.6,1.3,2.9,2.9,2.9 v10.5c-1.6,0-2.9,1.3-2.9,2.9c0,1.6,1.3,2.9,2.9,2.9v10.5c-1.6,0-2.9,1.3-2.9,2.9c0,1.6,1.3,2.9,2.9,2.9v10.5 c-1.6,0-2.9,1.3-2.9,2.9c0,1.6,1.3,2.9,2.9,2.9v10.5c-1.6,0-2.9,1.3-2.9,2.9c0,1.6,1.3,2.9,2.9,2.9v5.2l14.1,0.2v-0.1V521 c1.6,0,2.9-1.3,2.9-2.9c0-1.6-1.3-2.9-2.9-2.9v-10.5c1.6,0,2.9-1.3,2.9-2.9c0-1.6-1.3-2.9-2.9-2.9v-10.5c1.6,0,2.9-1.3,2.9-2.9 c0-1.6-1.3-2.9-2.9-2.9v-10.5c1.6,0,2.9-1.3,2.9-2.9c0-1.6-1.3-2.9-2.9-2.9v-10.5C692.5,455.8,693.8,454.5,693.8,452.9z"/>
<path class="desk" d="M734.2,451.9c0-1.6-1.3-2.9-2.9-2.9v-5.2l-14.1-0.2v0.1v5.2c-1.6,0-2.9,1.3-2.9,2.9c0,1.6,1.3,2.9,2.9,2.9 v10.5c-1.6,0-2.9,1.3-2.9,2.9c0,1.6,1.3,2.9,2.9,2.9v10.5c-1.6,0-2.9,1.3-2.9,2.9c0,1.6,1.3,2.9,2.9,2.9v10.5 c-1.6,0-2.9,1.3-2.9,2.9c0,1.6,1.3,2.9,2.9,2.9v5.2v5.3c-1.6,0-2.9,1.3-2.9,2.9c0,1.6,1.3,2.9,2.9,2.9v5.2l14.1,0.2v-0.1V520 c1.6,0,2.9-1.3,2.9-2.9c0-1.6-1.3-2.9-2.9-2.9v-10.5c1.6,0,2.9-1.3,2.9-2.9c0-1.6-1.3-2.9-2.9-2.9v-10.5c1.6,0,2.9-1.3,2.9-2.9 c0-1.6-1.3-2.9-2.9-2.9v-10.5c1.6,0,2.9-1.3,2.9-2.9c0-1.6-1.3-2.9-2.9-2.9v-10.5C732.9,454.8,734.2,453.5,734.2,451.9z"/>
<path class="desk" d="M774.6,451.9c0-1.6-1.3-2.9-2.9-2.9v-5.2l-14.1-0.2v0.1v5.2c-1.6,0-2.9,1.3-2.9,2.9c0,1.6,1.3,2.9,2.9,2.9 v10.5c-1.6,0-2.9,1.3-2.9,2.9c0,1.6,1.3,2.9,2.9,2.9v10.5c-1.6,0-2.9,1.3-2.9,2.9c0,1.6,1.3,2.9,2.9,2.9v10.5 c-1.6,0-2.9,1.3-2.9,2.9c0,1.6,1.3,2.9,2.9,2.9v10.5c-1.6,0-2.9,1.3-2.9,2.9c0,1.6,1.3,2.9,2.9,2.9v5.2l14.1,0.2v-0.1V520 c1.6,0,2.9-1.3,2.9-2.9c0-1.6-1.3-2.9-2.9-2.9v-10.5c1.6,0,2.9-1.3,2.9-2.9c0-1.6-1.3-2.9-2.9-2.9v-10.5c1.6,0,2.9-1.3,2.9-2.9 c0-1.6-1.3-2.9-2.9-2.9v-10.5c1.6,0,2.9-1.3,2.9-2.9c0-1.6-1.3-2.9-2.9-2.9v-10.5C773.3,454.8,774.6,453.5,774.6,451.9z"/>
<path class="desk" d="M815.7,451.9c0-1.6-1.3-2.9-2.9-2.9v-5.2l-14.2-0.2v0.1v5.2c-1.6,0-2.9,1.3-2.9,2.9c0,1.6,1.3,2.9,2.9,2.9 v10.5c-1.6,0-2.9,1.3-2.9,2.9c0,1.6,1.3,2.9,2.9,2.9v10.5c-1.6,0-2.9,1.3-2.9,2.9c0,1.6,1.3,2.9,2.9,2.9v10.5 c-1.6,0-2.9,1.3-2.9,2.9c0,1.6,1.3,2.9,2.9,2.9v5.2v5.3c-1.6,0-2.9,1.3-2.9,2.9c0,1.6,1.3,2.9,2.9,2.9v5.2v5.3 c-1.6,0-2.9,1.3-2.9,2.9c0,1.6,1.3,2.9,2.9,2.9v5.2l14.2,0.2v-0.1v-5.2c1.6,0,2.9-1.3,2.9-2.9c0-1.6-1.3-2.9-2.9-2.9V520 c1.6,0,2.9-1.3,2.9-2.9c0-1.6-1.3-2.9-2.9-2.9v-10.5c1.6,0,2.9-1.3,2.9-2.9c0-1.6-1.3-2.9-2.9-2.9v-10.5c1.6,0,2.9-1.3,2.9-2.9 c0-1.6-1.3-2.9-2.9-2.9v-10.5c1.6,0,2.9-1.3,2.9-2.9c0-1.6-1.3-2.9-2.9-2.9v-10.5C814.4,454.8,815.7,453.5,815.7,451.9z"/>
<path class="desk" d="M859.1,455.8c1.6,0,2.9-1.3,2.9-2.9c0-1.6-1.3-2.9-2.9-2.9v-5.2h-7v-0.2H845v0.1v5.2c-1.6,0-2.9,1.3-2.9,2.9 c0,1.6,1.3,2.9,2.9,2.9v5.2h4.7v0.1H845v5.2c-1.6,0-2.9,1.3-2.9,2.9c0,1.6,1.3,2.9,2.9,2.9v5.2v0.1v5.2c-1.6,0-2.9,1.3-2.9,2.9 c0,1.6,1.3,2.9,2.9,2.9v5.2v0.1v5.2c-1.6,0-2.9,1.3-2.9,2.9c0,1.6,1.3,2.9,2.9,2.9v5.2h4.7v0H845v0.1v5.2c-1.6,0-2.9,1.3-2.9,2.9 c0,1.6,1.3,2.9,2.9,2.9v5.2h4.7v0H845v0.1v5.2c-1.6,0-2.9,1.3-2.9,2.9c0,1.6,1.3,2.9,2.9,2.9v5.2h7v0.1h7.1v-0.1v-5.2 c1.6,0,2.9-1.3,2.9-2.9c0-1.6-1.3-2.9-2.9-2.9v-5.1v-0.1v0V521c1.6,0,2.9-1.3,2.9-2.9c0-1.6-1.3-2.9-2.9-2.9V510v-0.1v-5.2 c1.6,0,2.9-1.3,2.9-2.9c0-1.6-1.3-2.9-2.9-2.9v-5.2v-0.1v-5.2c1.6,0,2.9-1.3,2.9-2.9c0-1.6-1.3-2.9-2.9-2.9v-5.2h-4.7v-0.1h4.7 v-5.2c1.6,0,2.9-1.3,2.9-2.9c0-1.6-1.3-2.9-2.9-2.9V461V455.8z"/>
<path class="desk" d="M1008.4,451.9c0-1.6-1.3-2.9-2.9-2.9v-5.2l-14.1-0.2v0.1v5.2c-1.6,0-2.9,1.3-2.9,2.9c0,1.6,1.3,2.9,2.9,2.9 v10.5c-1.6,0-2.9,1.3-2.9,2.9c0,1.6,1.3,2.9,2.9,2.9v10.5c-1.6,0-2.9,1.3-2.9,2.9c0,1.6,1.3,2.9,2.9,2.9v10.5 c-1.6,0-2.9,1.3-2.9,2.9c0,1.6,1.3,2.9,2.9,2.9v10.5c-1.6,0-2.9,1.3-2.9,2.9c0,1.6,1.3,2.9,2.9,2.9v10.5c-1.6,0-2.9,1.3-2.9,2.9 c0,1.6,1.3,2.9,2.9,2.9v5.2l14.1,0.2v-0.1v-5.2c1.6,0,2.9-1.3,2.9-2.9c0-1.6-1.3-2.9-2.9-2.9V520c1.6,0,2.9-1.3,2.9-2.9 c0-1.6-1.3-2.9-2.9-2.9v-10.5c1.6,0,2.9-1.3,2.9-2.9c0-1.6-1.3-2.9-2.9-2.9v-10.5c1.6,0,2.9-1.3,2.9-2.9c0-1.6-1.3-2.9-2.9-2.9 v-10.5c1.6,0,2.9-1.3,2.9-2.9c0-1.6-1.3-2.9-2.9-2.9v-10.5C1007.1,454.8,1008.4,453.5,1008.4,451.9z"/>
<path class="desk" d="M1051.9,455.8c1.6,0,2.9-1.3,2.9-2.9c0-1.6-1.3-2.9-2.9-2.9v-5.2h-7v-0.2h-7.1v0.1v5.2 c-1.6,0-2.9,1.3-2.9,2.9c0,1.6,1.3,2.9,2.9,2.9v5.2h5.1v0.1h-5.1v5.2c-1.6,0-2.9,1.3-2.9,2.9c0,1.6,1.3,2.9,2.9,2.9v5.2v0.1v5.2 c-1.6,0-2.9,1.3-2.9,2.9c0,1.6,1.3,2.9,2.9,2.9v5.2h7v0.2h7.1v-0.1v-5.2c1.6,0,2.9-1.3,2.9-2.9c0-1.6-1.3-2.9-2.9-2.9v-5.2h-3.7 v-0.1h3.7v-5.2c1.6,0,2.9-1.3,2.9-2.9c0-1.6-1.3-2.9-2.9-2.9V461V455.8z"/>
<path class="desk" d="M1084.9,444.7v5.2c-1.6,0-2.9,1.3-2.9,2.9c0,1.6,1.3,2.9,2.9,2.9v5.2h2.1v0.1h-2.1v5.2 c-1.6,0-2.9,1.3-2.9,2.9c0,1.6,1.3,2.9,2.9,2.9v5.2v0.1v5.2c-1.6,0-2.9,1.3-2.9,2.9c0,1.6,1.3,2.9,2.9,2.9v5.2h7.1v-16.3V461h-1.5 v-0.1h1.5v-16.3L1084.9,444.7L1084.9,444.7z"/>
<path class="desk" d="M989,408.5h-5.2c0-1.6-1.3-2.9-2.9-2.9c-1.6,0-2.9,1.3-2.9,2.9h-10.5c0-1.6-1.3-2.9-2.9-2.9 c-1.6,0-2.9,1.3-2.9,2.9h-10.5c0-1.6-1.3-2.9-2.9-2.9c-1.6,0-2.9,1.3-2.9,2.9h-5.3h-5.2c0-1.6-1.3-2.9-2.9-2.9 c-1.6,0-2.9,1.3-2.9,2.9h-10.5c0-1.6-1.3-2.9-2.9-2.9c-1.6,0-2.9,1.3-2.9,2.9h-5.2l-0.2,14.1h0.1h5.2c0,1.6,1.3,2.9,2.9,2.9 c1.6,0,2.9-1.3,2.9-2.9H929c0,1.6,1.3,2.9,2.9,2.9c1.6,0,2.9-1.3,2.9-2.9h10.5c0,1.6,1.3,2.9,2.9,2.9c1.6,0,2.9-1.3,2.9-2.9h10.5 c0,1.6,1.3,2.9,2.9,2.9c1.6,0,2.9-1.3,2.9-2.9h10.5c0,1.6,1.3,2.9,2.9,2.9c1.6,0,2.9-1.3,2.9-2.9h5.2L989,408.5z"/>
<path class="desk" d="M964.6,372.4c-1.6,0-2.9,1.3-2.9,2.9h-10.5c0-1.6-1.3-2.9-2.9-2.9c-1.6,0-2.9,1.3-2.9,2.9h-5.3h-5.2 c0-1.6-1.3-2.9-2.9-2.9c-1.6,0-2.9,1.3-2.9,2.9h-10.5c0-1.6-1.3-2.9-2.9-2.9c-1.6,0-2.9,1.3-2.9,2.9h-5.2l-0.2,14.1h0.1h5.2 c0,1.6,1.3,2.9,2.9,2.9c1.6,0,2.9-1.3,2.9-2.9H929c0,1.6,1.3,2.9,2.9,2.9c1.6,0,2.9-1.3,2.9-2.9h10.5c0,1.6,1.3,2.9,2.9,2.9 c1.6,0,2.9-1.3,2.9-2.9h10.5c0,1.6,1.3,2.9,2.9,2.9c1.6,0,2.9-1.3,2.9-2.9h5.2l0.2-14.1h-0.1h-5.2 C967.5,373.7,966.2,372.4,964.6,372.4z"/>
<path class="desk" d="M945.6,338.8h-10.5c0-1.6-1.3-2.9-2.9-2.9c-1.6,0-2.9,1.3-2.9,2.9h-10.5c0-1.6-1.3-2.9-2.9-2.9 c-1.6,0-2.9,1.3-2.9,2.9h-5.2l-0.2,14.1h0.1h5.2c0,1.6,1.3,2.9,2.9,2.9c1.6,0,2.9-1.3,2.9-2.9h10.5c0,1.6,1.3,2.9,2.9,2.9 c1.6,0,2.9-1.3,2.9-2.9h10.5c0,1.6,1.3,2.9,2.9,2.9c1.6,0,2.9-1.3,2.9-2.9h10.5c0,1.6,1.3,2.9,2.9,2.9c1.6,0,2.9-1.3,2.9-2.9h10.5 c0,1.6,1.3,2.9,2.9,2.9c1.6,0,2.9-1.3,2.9-2.9h5.2l-0.1-14.1h-5.2c0-1.6-1.3-2.9-2.9-2.9c-1.6,0-2.9,1.3-2.9,2.9h-10.3 c0-1.6-1.3-2.9-2.9-2.9c-1.6,0-2.9,1.3-2.9,2.9h-10.5c0-1.6-1.3-2.9-2.9-2.9C946.9,335.9,945.6,337.2,945.6,338.8z"/>
<path class="desk" d="M909.4,311.6h10.5c0,1.6,1.3,2.9,2.9,2.9c1.6,0,2.9-1.3,2.9-2.9h10.5c0,1.6,1.3,2.9,2.9,2.9 c1.6,0,2.9-1.3,2.9-2.9h5.2l0.1-14.2h-0.1H942c0-1.6-1.3-2.9-2.9-2.9c-1.6,0-2.9,1.3-2.9,2.9h-10.4c0-1.6-1.3-2.9-2.9-2.9 c-1.6,0-2.9,1.3-2.9,2.9h-10.5c0-1.6-1.3-2.9-2.9-2.9c-1.6,0-2.9,1.3-2.9,2.9h-5.2l-0.2,14.2h0.1h5.2c0,1.6,1.3,2.9,2.9,2.9 C908.1,314.5,909.4,313.2,909.4,311.6z"/>
<path class="desk" d="M1037,286c1.1,1.1,3,1.1,4.1,0c1.1-1.1,1.1-3,0-4.1l7.4-7.4c1.1,1.1,3,1.1,4.1,0c1.1-1.1,1.1-3,0-4.1l7.4-7.4 c1.1,1.1,3,1.1,4.1,0c1.1-1.1,1.1-3,0-4.1l3.7-3.7l-5-5l-46,46l5,5l3.7-3.7c1.1,1.1,3,1.1,4.1,0c1.1-1.1,1.1-3,0-4.1L1037,286z"/>
<path class="desk" d="M1085.9,274.9l-3.7,3.7c-1.1-1.1-3-1.1-4.1,0c-1.1,1.1-1.1,3,0,4.1l-7.4,7.5c-1.1-1.1-3-1.1-4.1,0 c-1.1,1.1-1.1,3,0,4.1l-7.4,7.4c-1.1-1.1-3-1.1-4.1,0c-1.1,1.1-1.1,3,0,4.1l-7.4,7.4c-1.1-1.1-3-1.1-4.1,0c-1.1,1.1-1.1,3,0,4.1 l-3.7,3.7l9.9,10l3.7-3.7c1.1,1.1,3,1.1,4.1,0c1.1-1.1,1.1-3,0-4.1l7.4-7.4c1.1,1.1,3,1.1,4.1,0c1.1-1.1,1.1-3,0-4.1l7.5-7.4 c1.1,1.1,3,1.1,4.1,0c1.1-1.1,1.1-3,0-4.1l7.4-7.5c1.1,1.1,3,1.1,4.1,0c1.1-1.1,1.1-3,0-4.1l3.7-3.7L1085.9,274.9z"/>
<path class="desk" d="M1142.2,299.3c1.1,1.1,3,1.1,4.1,0c1.1-1.1,1.1-3,0-4.1l3.7-3.7l-10-10l-3.7,3.7c-1.1-1.1-3-1.1-4.1,0 c-1.1,1.1-1.1,3,0,4.1l-7.4,7.4c-1.1-1.1-3-1.1-4.1,0c-1.1,1.1-1.1,3,0,4.1l-7.4,7.4c-1.1-1.1-3-1.1-4.1,0c-1.1,1.1-1.1,3,0,4.1 l-3.7,3.7l10,10l3.7-3.7c1.1,1.1,3,1.1,4.1,0c1.1-1.1,1.1-3,0-4.1l7.4-7.4c1.1,1.1,3,1.1,4.1,0c1.1-1.1,1.1-3,0-4.1L1142.2,299.3z "/>
<path class="desk" d="M1174.1,330.6c1.1,1.1,3,1.1,4.1,0c1.1-1.1,1.1-3,0-4.1l3.7-3.7l-10-10l-3.7,3.7c-1.1-1.1-3-1.1-4.1,0 c-1.1,1.1-1.1,3,0,4.1l-7.4,7.5c-1.1-1.1-3-1.1-4.1,0c-1.1,1.1-1.1,3,0,4.1l-7.4,7.4c-1.1-1.1-3-1.1-4.1,0c-1.1,1.1-1.1,3,0,4.1 l-3.7,3.7l9.9,10l3.7-3.7c1.1,1.1,3,1.1,4.1,0c1.1-1.1,1.1-3,0-4.1l7.5-7.4c1.1,1.1,3,1.1,4.1,0c1.1-1.1,1.1-3,0-4.1L1174.1,330.6 z"/>
<path class="desk" d="M1197.1,373.6c1.1,1.1,3,1.1,4.1,0c1.1-1.1,1.1-3,0-4.1l7.4-7.4c1.1,1.1,3,1.1,4.1,0c1.1-1.1,1.1-3,0-4.1 l3.7-3.7l-9.9-10l-3.7,3.7c-1.1-1.1-3-1.1-4.1,0c-1.1,1.1-1.1,3,0,4.1l-3.7,3.7h0l-3.7,3.7c-1.1-1.1-3-1.1-4.1,0 c-1.1,1.1-1.1,3,0,4.1l-7.5,7.5c-1.1-1.1-3-1.1-4.1,0c-1.1,1.1-1.1,3,0,4.1l-3.7,3.7l10,10l3.7-3.7c1.1,1.1,3,1.1,4.1,0 c1.1-1.1,1.1-3,0-4.1L1197.1,373.6z"/>
<path class="desk" d="M1231.2,371.1l-3.7,3.7c-1.1-1.1-3-1.1-4.1,0c-1.1,1.1-1.1,3,0,4.1l-7.4,7.5c-1.1-1.1-3-1.1-4.1,0 c-1.1,1.1-1.1,3,0,4.1l-7.4,7.4c-1.1-1.1-3-1.1-4.1,0c-1.1,1.1-1.1,3,0,4.1l-3.7,3.7l5,5l34.5-34.6L1231.2,371.1z"/>
<rect class="dark-green" x="662.4" y="366.1" width="22.8" height="59.5"/>
<rect class="dark-green" x="637" y="311.8" width="25.3" height="54.2"/>
<rect class="dark-green" x="820.6" y="306.3" width="62.2" height="55.4"/>
<rect class="dark-green" x="237.1" y="391.1" transform="matrix(0.9903 -0.1392 0.1392 0.9903 -58.579 38.6808)" width="20.2" height="94"/>
<rect class="dark-green" x="275.7" y="412.3" transform="matrix(0.9903 -0.1392 0.1392 0.9903 -58.3197 49.575)" width="99.1" height="58.8"/>
<rect class="dark-green" x="696.6" y="366.1" width="104.1" height="59.5"/>
<rect class="dark-green" x="1044.8" y="349.3" width="20.2" height="78.6"/>
<rect class="meeting-room room-wow" x="163.5" y="310" transform="matrix(0.9903 -0.1392 0.1392 0.9903 -43.4486 29.7784)" width="55.3" height="31"/>
<path class="dark-green" d="M216,306.9l4.2,29.7l-53.8,7.6l-4.2-29.7L216,306.9 M216.9,305.7l-55.8,7.8l4.5,31.7l55.8-7.8L216.9,305.7 L216.9,305.7z"/>
<rect class="meeting-room room-the-cloud" x="236.3" y="588.7" transform="matrix(0.9903 -0.1392 0.1392 0.9903 -81.534 42.6268)" width="55.3" height="31"/>
<path class="dark-green" d="M288.8,585.5l4.2,29.7l-53.8,7.6l-4.2-29.7L288.8,585.5 M289.6,584.4l-55.8,7.8l4.5,31.7l55.8-7.8 L289.6,584.4L289.6,584.4z"/>
<rect class="meeting-room room-compas" x="206.9" y="594.6" transform="matrix(0.9903 -0.1392 0.1392 0.9903 -82.7655 36.803)" width="29.6" height="31"/>
<path class="dark-green" d="M233.7,593.2l4.2,29.7l-28.3,4l-4.2-29.7L233.7,593.2 M234.6,592.1l-30.3,4.3l4.5,31.7l30.3-4.3L234.6,592.1 L234.6,592.1z"/>
<rect class="meeting-room room-alchmey" x="472.2" y="553.1" transform="matrix(0.9903 -0.1392 0.1392 0.9903 -74.2823 75.1161)" width="55.3" height="31"/>
<path class="dark-green" d="M524.7,549.9l4.2,29.7l-53.8,7.6l-4.2-29.7L524.7,549.9 M525.5,548.8l-55.8,7.8l4.5,31.7l55.8-7.8 L525.5,548.8L525.5,548.8z"/>
<rect class="meeting-room room-avant-garde" x="443.3" y="558.9" transform="matrix(0.9903 -0.1392 0.1392 0.9903 -75.4974 69.351)" width="29.5" height="31"/>
<path class="dark-green" d="M470,557.6l4.2,29.7l-28.2,4l-4.2-29.7L470,557.6 M470.9,556.5l-30.2,4.2l4.5,31.7l30.2-4.2L470.9,556.5 L470.9,556.5z"/>
<rect class="meeting-room room-ploarity" x="638" y="522.8" width="33.4" height="51.9"/>
<path class="dark-green" d="M670.9,523.3v50.9h-32.4v-50.9H670.9 M671.9,522.3h-34.4v52.9h34.4V522.3L671.9,522.3z"/>
<rect class="meeting-room room-coexist" x="671.4" y="541.3" width="45.7" height="33.4"/>
<path class="dark-green" d="M716.6,541.8v32.4h-44.7v-32.4H716.6 M717.6,540.8h-46.7v34.4h46.7V540.8L717.6,540.8z"/>
<rect class="meeting-room room-colosseum" x="882" y="492.3" width="81.9" height="33.1"/>
<path class="dark-green" d="M963.3,492.9v31.9h-80.6v-31.9H963.3 M964.5,491.7h-83.1v34.4h83.1V491.7L964.5,491.7z"/>
<rect class="meeting-room room-tomorrow" x="1106.4" y="497.8" transform="matrix(0.7071 -0.7071 0.7071 0.7071 -33.4808 948.2688)" width="43.1" height="33.4"/>
<path class="dark-green" d="M1131.4,488.2l22.9,22.9l-29.8,29.8l-22.9-22.9L1131.4,488.2 M1131.4,486.8l-31.2,31.2l24.3,24.3l31.2-31.2 L1131.4,486.8L1131.4,486.8z"/>
<rect class="meeting-room room-yesterday" x="1137" y="467.3" transform="matrix(0.7071 -0.7071 0.7071 0.7071 -2.8811 960.964)" width="43.1" height="33.4"/>
<path class="dark-green" d="M1162.1,457.6l22.9,22.9l-29.8,29.8l-22.9-22.9L1162.1,457.6 M1162.1,456.1l-31.2,31.2l24.3,24.3l31.2-31.2 L1162.1,456.1L1162.1,456.1z"/>
<rect class="meeting-room room-why" x="1168.2" y="438.2" transform="matrix(0.7071 -0.7071 0.7071 0.7071 26.1892 973.0386)" width="38.9" height="33.4"/>
<path class="dark-green" d="M1189.6,430l22.9,22.9l-26.8,26.8l-22.9-22.9L1189.6,430 M1189.6,428.6l-28.2,28.2l24.3,24.3l28.2-28.2 L1189.6,428.6L1189.6,428.6z"/>
<rect class="meeting-room room-riveter" x="717.1" y="541.3" width="36.1" height="33.4"/>
<path class="dark-green" d="M752.7,541.8v32.4h-35.1v-32.4H752.7 M753.7,540.8h-37.1v34.4h37.1V540.8L753.7,540.8z"/>
<rect class="meeting-room room-unknow" x="1063.9" y="210" transform="matrix(0.7071 -0.7071 0.7071 0.7071 156.9083 830.2093)" width="33.4" height="31.3"/>
<path class="dark-green" d="M1081.4,203.5l21.5,21.5l-22.9,22.9l-21.5-21.5L1081.4,203.5 M1081.4,202.1l-24.3,24.3l22.9,22.9l24.3-24.3 L1081.4,202.1L1081.4,202.1z"/>
<rect class="meeting-room room-shh" x="1094.5" y="228.7" transform="matrix(0.7071 -0.7071 0.7071 0.7071 144.2827 860.7592)" width="33.4" height="55"/>
<path class="dark-green" d="M1103.6,225.7l38.2,38.2l-22.9,22.9l-38.2-38.2L1103.6,225.7 M1103.6,224.3l-24.3,24.3l39.6,39.6l24.3-24.3 L1103.6,224.3L1103.6,224.3z"/>
<rect class="meeting-room room-lady-justice" x="403" y="275.2" transform="matrix(0.9903 -0.1392 0.1392 0.9903 -36.7634 64.9307)" width="85.6" height="40.2"/>
<path class="dark-green" d="M484.9,270l5.5,38.8l-83.8,11.8l-5.5-38.8L484.9,270 M485.8,268.9L400,281l5.7,40.8l85.8-12.1L485.8,268.9 L485.8,268.9z"/>
<path class="meeting-room room-360" d="M1062.9,556.7c-12.9,0-23.4-10.5-23.4-23.4s10.5-23.4,23.4-23.4s23.4,10.5,23.4,23.4 S1075.8,556.7,1062.9,556.7z"/>
<path class="dark-green" d="M1062.9,510.4c12.6,0,22.9,10.3,22.9,22.9s-10.3,22.9-22.9,22.9s-22.9-10.3-22.9-22.9 C1040,520.7,1050.2,510.4,1062.9,510.4 M1062.9,509.4c-13.2,0-23.9,10.7-23.9,23.9s10.7,23.9,23.9,23.9 c13.2,0,23.9-10.7,23.9-23.9S1076.1,509.4,1062.9,509.4L1062.9,509.4z"/>
<rect class="meeting-room room-friction" x="821.3" y="362.3" width="60.9" height="32.8"/>
<path class="dark-green" d="M881.5,363v31.6h-59.6V363H881.5 M882.8,361.7h-62.2v34.1h62.2V361.7L882.8,361.7z"/>
<rect class="meeting-room room-core" x="821.3" y="395.3" width="29.4" height="29.4"/>
<path class="dark-green" d="M850,395.9V424h-28.1v-28.1H850 M851.3,394.6h-30.6v30.6h30.6V394.6L851.3,394.6z"/>
<rect class="meeting-room room-aha" x="850.4" y="395.3" width="31.7" height="29.3"/>
<path class="dark-green" d="M881.5,395.9v28h-30.4v-28H881.5 M882.8,394.6h-33.1v30.6h33.1V394.6L882.8,394.6z"/>
<polygon class="private-room" points="697.9,312.2 637.2,312.2 637.2,235.2 719.2,235.2 719.2,302.9 697.7,302.5"/>
<rect class="private-room" x="719.2" y="235.2" width="40.6" height="48.4"/>
<rect class="private-room" x="759.8" y="235.2" width="40.6" height="48.4"/>
<rect class="private-room" x="800.3" y="235.2" width="40.6" height="48.4"/>
<rect class="private-room" x="840.9" y="235.2" width="40.6" height="48.4"/>
<rect class="private-room" x="881.5" y="235.2" width="27.9" height="34.7"/>
<rect class="private-room" x="908.9" y="235.2" width="27.9" height="34.7"/>
<rect class="private-room" x="936.7" y="235.2" width="27.9" height="34.7"/>
<rect class="private-room" x="964.5" y="235.2" width="27.9" height="34.7"/>
<rect class="private-room" x="662.4" y="311.8" width="35.6" height="54.2"/>
<rect class="private-room" x="698" y="334.6" width="36.2" height="31.5"/>
<rect class="private-room" x="734.2" y="334.6" width="28.2" height="31.5"/>
<polygon class="outline" points="1273.5,395.4 1081.8,202.5 1047,235.7 635,233.8 635,287.2 490.8,309 485.1,269.4 162.6,314.6 167.3,347 85,358.9 120.7,612.1 204.3,600.2 208.8,628.6 530.7,580.9 525,542 636.6,525.4 637.2,576.1 1121.5,574.3 1121.5,543.5"/>
</svg>
